<svg width="96" height="41" viewBox="0 0 96 41" fill="none" xmlns="http://www.w3.org/2000/svg">
<path d="M6.85975 4.17786C7.33682 4.09424 7.82736 4.20233 8.22345 4.47835C8.61955 4.75438 8.88874 5.17573 8.97183 5.64972L11.5824 20.5428C11.6378 20.8588 11.8173 21.1397 12.0814 21.3237C12.3454 21.5077 12.6725 21.5798 12.9905 21.524C13.3086 21.4683 13.5916 21.2893 13.7773 21.0264C13.963 20.7636 14.0362 20.4384 13.9809 20.1224L12.9228 14.0865L13.1274 14.0408C13.8827 13.879 14.6519 13.754 15.0958 13.7621C15.4285 13.7701 15.841 13.8673 16.2463 14.0074C16.4485 14.0752 16.6675 14.2947 16.7372 14.6926L17.5785 19.4918C17.6339 19.8077 17.8133 20.0887 18.0774 20.2727C18.3415 20.4567 18.6685 20.5287 18.9865 20.473C19.3046 20.4172 19.5876 20.2382 19.7733 19.9754C19.9591 19.7125 20.0323 19.3873 19.9769 19.0713L19.3232 15.3421C19.4063 15.3184 19.4896 15.2956 19.5732 15.2737C20.3211 15.0837 20.9697 15.0044 21.288 15.0714C21.5903 15.1314 22.094 15.4385 22.6333 15.8917C22.8676 16.0864 23.0724 16.2814 23.2211 16.4248L23.7834 19.6322C23.8387 19.9481 24.0182 20.229 24.2823 20.4131C24.5463 20.5971 24.8734 20.6691 25.1914 20.6134C25.5095 20.5576 25.7925 20.3786 25.9782 20.1158C26.1639 19.8529 26.2372 19.5277 26.1818 19.2117L25.7641 16.8288L26.5843 16.6851C26.9195 16.6263 27.2632 16.638 27.5933 16.7194C27.9233 16.8008 28.2324 16.9501 28.5006 17.1577C28.7687 17.3652 28.99 17.6264 29.1501 17.9245C29.3102 18.2225 29.4057 18.5507 29.4302 18.8879L29.9143 25.4714C29.9761 26.3175 29.8581 27.1675 29.5679 27.9661L27.2422 34.3716C27.1693 34.5724 27.0444 34.7505 26.8801 34.888C26.7158 35.0255 26.5179 35.1175 26.3065 35.1546L10.9927 37.839C10.7952 37.8735 10.5922 37.859 10.4019 37.7968C10.2116 37.7346 10.0398 37.6267 9.90178 37.4825L5.5668 32.9617C5.1644 32.5425 4.86916 32.0334 4.7058 31.4769L2.58139 24.223C2.49597 23.9324 2.52346 23.6202 2.65843 23.3482C2.7934 23.0762 3.02602 22.8643 3.3103 22.7542L5.63236 21.856L6.00412 23.9767C6.05951 24.2927 6.23897 24.5736 6.50303 24.7577C6.7671 24.9417 7.09412 25.0137 7.41217 24.958C7.73022 24.9022 8.01324 24.7232 8.19897 24.4604C8.3847 24.1975 8.45792 23.8723 8.40253 23.5563L5.37421 6.28035C5.29113 5.80636 5.40096 5.31857 5.67955 4.92428C5.95814 4.52998 6.38267 4.26149 6.85975 4.17786ZM12.5047 11.7012L11.3702 5.2293C11.1764 4.12333 10.5482 3.14017 9.62403 2.49611C8.69981 1.85205 7.55522 1.59984 6.44205 1.79497C5.32887 1.9901 4.33831 2.61658 3.68826 3.5366C3.03821 4.45661 2.78193 5.5948 2.9758 6.70077L5.20631 19.4254L2.42846 20.5018C1.57708 20.8322 0.880439 21.4674 0.47594 22.2821C0.0714398 23.0968 -0.0115566 24.0319 0.243318 24.9031L2.36814 32.1593C2.6404 33.0867 3.13248 33.9354 3.80315 34.634L8.13812 39.1548C8.55245 39.5868 9.0679 39.9102 9.63873 40.0964C10.2096 40.2825 10.8181 40.3256 11.4104 40.2219L26.7242 37.5375C27.3583 37.4261 27.9519 37.1502 28.4448 36.7377C28.9378 36.3253 29.3125 35.7908 29.5312 35.1886L31.8574 28.7855C32.2641 27.6662 32.4292 26.4749 32.3421 25.289L31.858 18.7055C31.8085 18.0313 31.6175 17.3752 31.2971 16.7794C30.9767 16.1837 30.5342 15.6616 29.998 15.2467C29.4618 14.8319 28.8438 14.5335 28.1839 14.3708C27.524 14.2081 26.8368 14.1847 26.1666 14.3022L24.7732 14.5464C24.588 14.371 24.3975 14.2012 24.2019 14.0375C23.6481 13.5721 22.7414 12.8984 21.7922 12.7013C20.8582 12.5064 19.708 12.7424 18.9697 12.9308L18.6581 13.0149C18.289 12.4102 17.7193 11.9526 17.0469 11.7205C16.4397 11.501 15.8023 11.3743 15.1565 11.3445C14.3871 11.3271 13.3599 11.5169 12.619 11.6763L12.5047 11.7012Z" fill="white"/>
</svg>
