<svg width="160" height="42" viewBox="0 0 160 42" fill="none" xmlns="http://www.w3.org/2000/svg">
    <path d="M20.5957 0C15.1334 0 9.8948 2.1699 6.03235 6.03235C2.1699 9.8948 0 15.1334 0 20.5957C0 26.0581 2.1699 31.2967 6.03235 35.1591C9.8948 39.0216 15.1334 41.1915 20.5957 41.1915C26.0581 41.1915 31.2967 39.0216 35.1591 35.1591C39.0216 31.2967 41.1915 26.0581 41.1915 20.5957C41.1915 15.1334 39.0216 9.8948 35.1591 6.03235C31.2967 2.1699 26.0581 0 20.5957 0Z" fill="white"/>
    <path d="M31.8298 6.46808C29.2766 13.0213 22.6383 12.1702 17.9574 12.3404L16.766 16.766C22.6383 12.0851 30.2979 16.766 29.5319 23.9149C29.3164 25.9974 28.466 27.9635 27.096 29.5466C25.7259 31.1298 23.9024 32.2536 21.8723 32.7659C17.8723 33.7021 13.5319 32.2553 11.5745 28.2553L10.8936 26.5532L15.0638 25.4468C15.0638 25.7021 15.234 25.8723 15.3191 26.1276C18.1277 30.6383 23.8298 28.3404 24.4255 23.6596C25.1064 18.9787 18.4681 16.4255 15.4043 21.9574L11.6596 20.4255L13.0213 14.8085L13.9574 11.0638L14.2128 10.2128C16.5957 4 21.2766 3.40425 25.4468 3.40425H25.9574C21.6489 2.1266 17.0187 2.50284 12.9729 4.45932C8.92719 6.41581 5.75722 9.81171 4.08344 13.9824C2.40967 18.153 2.35259 22.7982 3.92338 27.0087C5.49416 31.2192 8.57972 34.692 12.5762 36.7473C16.5726 38.8026 21.1922 39.2925 25.5308 38.1211C29.8695 36.9497 33.6148 34.2013 36.0337 30.4139C38.4527 26.6265 39.3711 22.0727 38.6093 17.6438C37.8475 13.2148 35.4603 9.22959 31.9149 6.46808H31.8298Z" fill="#E52322"/>
    <path d="M30.2128 5.2766C29.9561 6.23802 29.4751 7.12491 28.8094 7.86458C28.1437 8.60425 27.3122 9.17564 26.3831 9.53192C24.4256 10.383 22.0426 10.383 19.7448 10.383H16.1703C18.2128 5.70213 21.7022 5.2766 25.4469 5.2766C27.034 5.19212 28.6237 5.16373 30.2128 5.19149V5.2766Z" fill="#00923A"/>
    <path d="M59.149 24.4255H60.8511V30.8936H57.6171V27.6596H48.2554V30.8085H44.9362V24.3404H46.6383C47.4894 23.0638 48 21.1915 48 18.6383V10.7234H59.0639V24.3404L59.149 24.4255ZM55.7447 24.4255V13.8723H51.3192V18.8936C51.3192 21.3617 50.8937 23.1489 50.1277 24.5106H55.8298L55.7447 24.4255ZM67.7447 28C66.0426 28 64.4256 27.4043 63.2341 26.1277C62.6448 25.5371 62.1823 24.8324 61.875 24.0568C61.5677 23.2811 61.422 22.4509 61.4468 21.617C61.4234 20.7724 61.5724 19.9319 61.8849 19.1469C62.1974 18.3618 62.6667 17.6488 63.2641 17.0513C63.8616 16.4539 64.5746 15.9845 65.3597 15.6721C66.1447 15.3596 66.9852 15.2106 67.8298 15.234C69.532 15.234 71.0639 15.9149 72.2554 17.1064C72.86 17.6897 73.3382 18.3911 73.6603 19.1671C73.9824 19.9431 74.1415 20.777 74.1277 21.617C74.1277 23.4043 73.532 24.9362 72.2554 26.1277C71.669 26.7283 70.967 27.2038 70.1917 27.5256C69.4165 27.8474 68.5841 28.0088 67.7447 28ZM67.7447 24.9362C68.6809 24.9362 69.4468 24.5957 70.1277 24.0851C70.7234 23.4043 70.9788 22.5532 70.9788 21.617C70.9901 21.1852 70.9149 20.7555 70.7574 20.3533C70.6 19.951 70.3636 19.5844 70.0622 19.275C69.7607 18.9656 69.4003 18.7198 69.0023 18.5519C68.6043 18.3841 68.1767 18.2977 67.7447 18.2979C67.3017 18.2844 66.8608 18.3646 66.451 18.5333C66.0411 18.7019 65.6714 18.9552 65.3662 19.2765C65.0609 19.5979 64.8269 19.98 64.6795 20.398C64.5321 20.816 64.4745 21.2604 64.5107 21.7021C64.5107 22.5532 64.8511 23.4043 65.3617 24C66.0426 24.5957 66.8085 24.9362 67.7447 24.9362ZM77.0213 26.1277C76.4361 25.5341 75.9762 24.8289 75.6692 24.054C75.3621 23.2791 75.2142 22.4503 75.2341 21.617C75.2106 20.7724 75.3597 19.9319 75.6721 19.1469C75.9846 18.3618 76.4539 17.6488 77.0514 17.0513C77.6488 16.4539 78.3619 15.9845 79.1469 15.6721C79.9319 15.3596 80.7725 15.2106 81.6171 15.234C82.7141 15.2143 83.7952 15.4979 84.7413 16.0535C85.6874 16.6091 86.4617 17.4153 86.9788 18.383L84.2554 19.9149C83.9994 19.4165 83.6081 19.0004 83.1264 18.7144C82.6447 18.4284 82.092 18.284 81.532 18.2979C81.0889 18.2844 80.6481 18.3646 80.2382 18.5333C79.8283 18.7019 79.4586 18.9552 79.1534 19.2765C78.8481 19.5979 78.6141 19.98 78.4667 20.398C78.3193 20.816 78.2618 21.2604 78.2979 21.7021C78.2979 22.5532 78.6383 23.4043 79.2341 24C79.8298 24.5957 80.5958 24.8511 81.532 24.8511C82.8085 24.8511 83.8298 24.2553 84.3405 23.3191L86.9788 24.8511C86.4405 25.8007 85.6615 26.5918 84.7202 27.1446C83.7789 27.6974 82.7086 27.9924 81.6171 28C79.7447 28 78.2128 27.4043 77.0213 26.1277ZM106.383 20.2553V27.6596H103.319V20.4255C103.319 18.9787 102.553 18.1277 101.277 18.1277C99.9149 18.1277 99.0639 19.1489 99.0639 20.8511V27.6596H96V20.4255C96 18.9787 95.149 18.1277 93.9575 18.1277C92.5958 18.1277 91.6596 19.1489 91.6596 20.8511V27.6596H88.5958V15.4894H91.6596V16.766C92.4256 15.7447 93.5319 15.1489 95.0639 15.1489C96.5107 15.1489 97.6171 15.7447 98.2979 16.8511C99.149 15.7447 100.34 15.1489 101.872 15.1489C104.681 15.1489 106.468 17.1064 106.468 20.1702L106.383 20.2553ZM117.787 15.5745H120.851V27.6596H117.787V26.2128C117.316 26.7866 116.716 27.2401 116.035 27.5361C115.354 27.8321 114.613 27.9619 113.872 27.9149C112.17 27.9149 110.809 27.4043 109.617 26.2128C108.469 24.9634 107.858 23.3129 107.915 21.617C107.915 19.9149 108.596 18.383 109.617 17.1064C110.809 15.9149 112.17 15.234 113.872 15.234C115.574 15.234 116.851 15.8298 117.787 17.0213V15.5745ZM114.383 25.0213C115.404 25.0213 116.085 24.6808 116.766 24.0851C117.094 23.7638 117.353 23.3795 117.529 22.9554C117.704 22.5313 117.792 22.076 117.787 21.617C117.787 20.5957 117.447 19.8298 116.766 19.234C116.464 18.9044 116.095 18.6429 115.684 18.4668C115.274 18.2907 114.83 18.2041 114.383 18.2128C113.447 18.2128 112.681 18.5532 112 19.234C111.404 19.8298 111.149 20.5957 111.149 21.617C111.121 22.0642 111.182 22.5124 111.328 22.9359C111.475 23.3594 111.703 23.7499 112 24.0851C112.681 24.6808 113.447 25.0213 114.383 25.0213ZM134.043 24.2553C134.043 26.2128 132.596 27.6596 130.043 27.6596H123.66V15.4894H129.532C132.085 15.4894 133.532 16.8511 133.532 18.8936C133.532 20 133.106 20.766 132.34 21.4468C133.447 21.9574 134.043 22.8936 134.043 24.1702V24.2553ZM126.553 18.1277V20.3404H129.277C130.128 20.3404 130.553 20 130.553 19.234C130.553 18.5532 130.128 18.1277 129.277 18.1277H126.553ZM129.617 25.0213C130.468 25.0213 130.979 24.5957 130.979 23.8298C130.979 23.1489 130.468 22.8085 129.617 22.8085H126.553V25.0213H129.617ZM147.064 27.6596H143.489L139.064 22.2128V27.6596H136V15.4894H139.064V20.8511L143.234 15.4894H146.894L142.128 21.4468L147.064 27.5745V27.6596ZM156.936 15.5745H160V27.6596H156.936V26.2128C156.457 26.7988 155.842 27.2599 155.146 27.5563C154.449 27.8528 153.691 27.9758 152.936 27.9149C151.319 27.9149 149.957 27.4043 148.851 26.2128C147.703 24.9634 147.092 23.3129 147.149 21.617C147.149 19.9149 147.66 18.383 148.851 17.1064C149.957 15.9149 151.404 15.234 152.936 15.234C154.638 15.234 156 15.8298 156.936 17.0213V15.5745ZM153.532 25.0213C154.553 25.0213 155.234 24.6808 155.915 24.0851C156.596 23.4043 156.936 22.6383 156.936 21.617C156.936 20.5957 156.596 19.8298 155.915 19.234C155.613 18.9044 155.244 18.6429 154.833 18.4668C154.423 18.2907 153.979 18.2041 153.532 18.2128C152.596 18.2128 151.83 18.5532 151.149 19.234C150.553 19.8298 150.298 20.5957 150.298 21.617C150.274 22.0631 150.343 22.5092 150.5 22.9273C150.658 23.3454 150.9 23.7263 151.212 24.0462C151.524 24.366 151.898 24.6178 152.312 24.7856C152.726 24.9534 153.171 25.0337 153.617 25.0213H153.532Z" fill="#E52322"/>
</svg>
