<svg width="180" height="179" viewBox="0 0 180 179" fill="none" xmlns="http://www.w3.org/2000/svg">
<g filter="url(#filter0_d_404_65244)">
<rect x="20.5127" y="20" width="138.513" height="138.513" rx="10" fill="white"/>
<path d="M88.78 31.8726C73.8232 31.8726 59.4791 37.8141 48.9031 48.3901C38.327 58.9661 32.3855 73.3103 32.3855 88.2671C32.3855 103.224 38.327 117.568 48.9031 128.144C59.4791 138.72 73.8232 144.662 88.78 144.662C103.737 144.662 118.081 138.72 128.657 128.144C139.233 117.568 145.175 103.224 145.175 88.2671C145.175 73.3103 139.233 58.9661 128.657 48.3901C118.081 37.8141 103.737 31.8726 88.78 31.8726Z" fill="white"/>
<path d="M119.54 49.5834C112.549 67.5271 94.3724 65.1967 81.5554 65.6628L78.2929 77.7806C94.3724 64.9637 115.346 77.7806 113.248 97.3556C112.658 103.058 110.33 108.441 106.578 112.776C102.827 117.111 97.8336 120.188 92.275 121.591C81.3224 124.155 69.4376 120.193 64.0778 109.24L62.2135 104.58L73.6322 101.55C73.6322 102.249 74.0983 102.715 74.3313 103.414C82.0215 115.765 97.6349 109.473 99.2661 96.6565C101.13 83.8395 82.9536 76.8485 74.5644 91.9958L64.3108 87.8011L68.0394 72.4208L70.6028 62.1673L71.3019 59.8369C77.8269 42.8253 90.6438 41.1941 102.063 41.1941H103.461C91.6633 37.6957 78.9849 38.7259 67.907 44.0831C56.8291 49.4402 48.1492 58.7388 43.5661 70.1587C38.9831 81.5786 38.8268 94.2978 43.1278 105.827C47.4289 117.356 55.8777 126.865 66.8206 132.493C77.7635 138.121 90.4128 139.462 102.293 136.255C114.172 133.047 124.428 125.522 131.051 115.151C137.675 104.78 140.19 92.3113 138.104 80.1842C136.018 68.057 129.481 57.1448 119.773 49.5834H119.54Z" fill="#E52322"/>
<path d="M115.112 46.3208C114.409 48.9533 113.092 51.3818 111.27 53.4071C109.447 55.4324 107.17 56.997 104.626 57.9726C99.266 60.3029 92.741 60.3029 86.4491 60.3029H76.6616C82.2545 47.486 91.8089 46.3208 102.062 46.3208C106.408 46.0895 110.761 46.0117 115.112 46.0878V46.3208Z" fill="#00923A"/>
</g>
<defs>
<filter id="filter0_d_404_65244" x="0.512695" y="0" width="178.513" height="178.513" filterUnits="userSpaceOnUse" color-interpolation-filters="sRGB">
<feFlood flood-opacity="0" result="BackgroundImageFix"/>
<feColorMatrix in="SourceAlpha" type="matrix" values="0 0 0 0 0 0 0 0 0 0 0 0 0 0 0 0 0 0 127 0" result="hardAlpha"/>
<feOffset/>
<feGaussianBlur stdDeviation="10"/>
<feComposite in2="hardAlpha" operator="out"/>
<feColorMatrix type="matrix" values="0 0 0 0 0 0 0 0 0 0 0 0 0 0 0 0 0 0 0.25 0"/>
<feBlend mode="normal" in2="BackgroundImageFix" result="effect1_dropShadow_404_65244"/>
<feBlend mode="normal" in="SourceGraphic" in2="effect1_dropShadow_404_65244" result="shape"/>
</filter>
</defs>
</svg>
