<svg width="444" height="867" viewBox="0 0 444 867" fill="none" xmlns="http://www.w3.org/2000/svg">
<g clip-path="url(#clip0_307_197)">
<path d="M201.49 84.3102C205.91 80.7502 210.61 78.0602 215.49 76.1202C218.02 75.1202 220.59 74.3202 223.2 73.7102C224.71 73.3602 226.22 73.0602 227.75 72.8302C229.76 72.1602 231.81 71.5802 233.89 71.1002C233.89 71.1002 233.89 71.0902 233.88 71.0802C233.37 70.6402 233.01 70.0902 232.78 69.4902L229.32 64.5102C225.23 58.6202 221.44 52.2902 216.77 46.8402C215.25 45.0702 213.56 43.5402 211.69 42.3902C213.85 41.0202 216 39.6402 218.14 38.2402C223.88 34.9602 229.57 31.3702 233.36 25.9202C234.06 24.9102 234.66 23.8502 235.18 22.7602C234.96 20.3502 234.66 17.9402 234.33 15.5402C233.62 10.4002 232.79 4.97023 231 -0.00976562C218.66 8.17023 205.41 14.9202 192.19 21.9402C175.95 30.5702 160.55 40.7302 144.1 48.8902C146.04 52.7902 147.79 56.7502 149.59 60.2602C152.16 65.2702 154.37 70.3302 156.43 75.4502C156.6 75.3702 156.78 75.2902 156.95 75.1902C159.72 73.5202 162.51 71.8602 165.3 70.2002C165.43 71.9202 165.87 73.7702 166.7 75.7902C171.45 87.4502 177.85 98.6902 183.83 109.9C184.11 109.44 184.39 108.97 184.68 108.52C187.6 99.0402 193.56 90.7002 201.51 84.3102H201.49Z" fill="#3A1F00"/>
<path d="M282.02 313.361C280.96 304.661 279.32 296.041 277.15 287.551C277.82 291.091 278.49 294.631 279.16 298.171C280.12 303.231 281.07 308.291 282.03 313.361H282.02Z" fill="#FFC534"/>
<path d="M320.5 586.52C320.17 587.28 319.84 588.04 319.51 588.81C319.39 589.09 318.68 590.769 318.35 591.549C316.09 596.999 313.87 602.46 311.68 607.94C313.1 607.23 314.49 606.49 315.87 605.7L320.5 586.53V586.52Z" fill="#FFE6D6"/>
<path d="M44.8002 851.44C42.7702 845.6 37.3902 840.77 33.5102 836.13C28.5802 830.24 23.6602 824.35 18.7302 818.46C17.7102 817.25 16.4302 816.66 15.1402 816.54C14.4502 816.15 13.6202 815.91 12.6702 815.89C10.3202 815.83 8.32024 816.29 6.65024 817.11C-0.859759 820.82 -1.68976 832.16 2.60024 839.57C5.82024 845.14 10.8202 849.9 14.9902 854.74C18.6802 859.02 22.2802 863.75 27.6702 865.94C27.7202 865.96 27.7702 865.99 27.8302 866.01C34.5202 868.65 41.9302 865.71 44.5502 860.07C44.7702 859.6 44.9602 859.11 45.1102 858.6C45.7302 856.47 45.7202 854.04 44.8102 851.44H44.8002Z" fill="#3A1F00"/>
<path d="M295.02 664.141C292.03 664.401 289.02 664.551 286.02 664.581C265.79 700.161 240.51 732.811 210.4 760.671C162.82 804.701 104.22 833.351 45.0898 858.601C44.9398 859.111 44.7498 859.601 44.5298 860.071C47.8098 861.201 51.1498 862.121 54.5398 862.841C105.31 840.961 155.21 816.481 198.15 781.371C237.72 749.011 270.27 708.771 295.01 664.141H295.02Z" fill="#FEB500"/>
<path d="M226.82 91.6209C259.31 137.251 286.58 186.621 306.81 238.891C329.98 298.751 343.86 362.351 345.24 426.591C347.85 427.151 350.41 427.811 352.91 428.581C352.02 371.741 341.27 315.061 323.06 261.301C302.21 199.751 271.63 141.571 234.05 88.5909C231.86 85.5009 229.65 82.4309 227.41 79.3809C226.02 77.4809 224.59 75.6009 223.17 73.7109C220.56 74.3209 217.99 75.1209 215.46 76.1209C219.31 81.2409 223.09 86.4009 226.8 91.6209H226.82Z" fill="#FEB500"/>
<path d="M366.49 288.191C369.4 291.061 373.82 289.021 374.89 285.551C377.82 276.021 374.37 265.211 366.38 259.211C363.34 256.921 358.99 257.891 357.98 261.851C357.56 263.491 357.33 265.131 357.26 266.761C356.45 267.881 356.07 269.341 356.5 271.031C358.18 277.671 361.63 283.391 366.5 288.191H366.49Z" fill="#864900"/>
<path d="M370.55 332.719C369.42 333.299 368.55 334.389 368.29 336.089C367.5 341.309 367.78 346.599 369.75 351.539C371.41 355.699 374.84 360.719 380.06 358.439C384.59 356.459 384.77 350.739 384.37 346.479C383.89 341.409 382.13 336.639 379.28 332.419C377.35 329.569 372.06 329.109 370.55 332.719Z" fill="#864900"/>
<path d="M274.48 744.641C273.18 742.321 270.23 740.761 267.23 742.431C264.53 743.931 262.14 745.821 260.07 748.011C257.03 750.481 254.59 753.691 253.15 757.341C252.7 758.491 252.58 759.721 252.8 760.851C252.76 761.001 252.71 761.141 252.67 761.281C251.68 764.871 255.66 768.701 259.22 767.251C267.35 763.921 273.11 757.671 275.93 749.381C276.61 747.391 275.84 745.731 274.48 744.641Z" fill="#864900"/>
<path d="M261.21 782.649C258.55 783.499 256.08 784.739 253.86 786.319C250.72 787.969 247.98 790.379 246.05 793.369C245.44 794.309 245.11 795.379 245.11 796.419C245.05 796.539 244.98 796.659 244.92 796.779C243.39 799.789 246.25 803.909 249.66 803.249C257.48 801.749 263.71 797.229 267.7 790.379C268.66 788.739 268.27 787.119 267.26 785.909C266.52 783.619 264.18 781.709 261.22 782.649H261.21Z" fill="#864900"/>
<path d="M217.97 796.72C216.24 796.83 214.53 797.12 212.87 797.57C212.54 797.52 212.2 797.5 211.84 797.51C206.11 797.82 200.86 801.18 198.6 806.54C198.5 806.79 198.42 807.03 198.34 807.28C196.63 810.39 198.22 815.3 202.82 814.99C203.06 814.97 203.3 814.95 203.54 814.92C203.97 814.92 204.42 814.87 204.89 814.76C211.57 813.82 217.68 810.54 221.98 805.23C224.65 801.93 222.6 796.42 217.98 796.71L217.97 796.72Z" fill="#864900"/>
<path d="M307.07 752.491C305.47 753.161 303.95 754.001 302.53 754.971C302.2 755.031 301.87 755.121 301.54 755.261C296.23 757.441 292.38 762.351 292.01 768.151C291.99 768.421 292 768.671 292.01 768.931C291.42 772.431 294.54 776.541 298.78 774.741C299 774.651 299.22 774.541 299.43 774.441C299.83 774.311 300.24 774.101 300.65 773.851C306.65 770.761 311.33 765.651 313.64 759.221C315.07 755.221 311.32 750.701 307.06 752.501L307.07 752.491Z" fill="#864900"/>
<path d="M390.82 320.239C392.93 324.689 399.14 324.949 400.63 319.789C402.6 312.959 400.36 305.619 395.21 300.819C392.38 298.179 387.69 299.769 386.81 303.459C385.54 308.819 386.78 314.129 389.95 318.419C390.24 319.029 390.53 319.639 390.82 320.249V320.239Z" fill="#864900"/>
<path d="M94.1701 733.759C100.98 726.049 107.83 718.379 114.85 710.859C112.49 711.709 110.11 712.519 107.72 713.289C102.72 719.979 97.9201 726.799 93.3901 733.789C93.6501 733.739 93.9201 733.719 94.1801 733.759H94.1701Z" fill="#FFE18D"/>
<path d="M124.31 761.87C125.16 761.03 126.03 760.19 126.87 759.33C125.28 760.61 123.7 761.9 122.1 763.17C122.84 762.73 123.57 762.3 124.31 761.86V761.87Z" fill="#FFE18D"/>
<path d="M166.89 685.919C167.89 685.519 168.89 685.149 169.9 684.799C170.07 683.239 170.19 681.629 170.21 680.039C170.04 680.179 169.87 680.319 169.7 680.449C168.81 682.279 167.95 683.919 167.26 685.229C167.14 685.459 167.02 685.689 166.89 685.919Z" fill="#FFE18D"/>
<path d="M142.19 730.431C142.52 730.661 142.79 730.941 142.96 731.281C150.96 725.101 158.99 718.961 167.04 712.851C169.7 708.681 172.57 704.661 175.65 700.821C177.35 698.041 179 695.221 180.59 692.381L178.21 694.531C166.2 706.501 154.19 718.461 142.19 730.431Z" fill="#FFE18D"/>
<path d="M123.87 692.75C122.54 694.38 121.21 696.01 119.89 697.64C121.81 696.35 123.72 695.05 125.61 693.72C124.94 693.68 124.31 693.29 123.87 692.74V692.75Z" fill="#FFE18D"/>
<path d="M196.1 678.419L191.55 682.519C191.5 682.619 191.45 682.729 191.4 682.829C191.82 682.929 192.25 683.019 192.67 683.139C193.82 682.139 194.98 681.149 196.17 680.179C196.43 679.969 196.72 679.839 197.01 679.779C197.53 679.389 198.08 679.029 198.64 678.689C198.54 678.189 198.43 677.689 198.33 677.189C197.56 677.399 196.8 677.789 196.1 678.419Z" fill="#FFE18D"/>
<path d="M55.3999 805.211C54.5599 806.041 54.1699 807.011 54.1299 808.001C54.9099 807.441 55.6899 806.881 56.4799 806.321C56.0199 806.051 55.6399 805.671 55.4099 805.211H55.3999Z" fill="#FFE18D"/>
<path d="M58.8999 812.15C59.5299 812.72 60.1999 813.13 60.9099 813.39C61.3099 813.24 61.7099 813.04 62.0899 812.75C76.0599 802.37 90.2799 791.81 103.8 780.47C104.3 780.23 104.76 779.91 105.16 779.48C105.4 779.23 105.63 778.97 105.87 778.71C105.89 778.7 105.9 778.68 105.92 778.67C103.08 780.35 100.23 782.04 97.3899 783.72C85.0599 793.83 71.9499 803.09 58.9099 812.14L58.8999 812.15Z" fill="#FFE18D"/>
<path d="M77.4399 787.22C77.0799 786.92 76.7899 786.52 76.5899 786.1C73.7199 788.68 70.8499 791.27 67.9799 793.85C67.3599 794.68 66.7199 795.49 66.1099 796.33C69.3099 794.43 72.5099 792.54 75.7099 790.64C76.2799 789.5 76.8599 788.35 77.4399 787.21V787.22Z" fill="#FFE18D"/>
<path d="M76.58 784.119C76.7 783.909 76.84 783.699 77.05 783.519C78.39 782.369 79.72 781.219 81.06 780.069C81.69 778.829 82.32 777.599 82.96 776.369C80.67 778.739 78.45 781.189 76.27 783.669C76.37 783.829 76.47 783.979 76.58 784.129V784.119Z" fill="#FFE18D"/>
<path d="M82.8798 758.15C81.3498 759.5 79.8198 760.85 78.2898 762.2C76.4698 765.71 74.9498 769.39 73.7598 773.2C74.4098 772.74 75.0598 772.27 75.7098 771.8C77.7598 767.05 80.1598 762.49 82.8798 758.15Z" fill="#FFE18D"/>
<path d="M124.69 700.561C123.49 701.381 122.28 702.201 121.07 703.001C121.79 702.701 122.49 702.391 123.2 702.081C123.69 701.571 124.19 701.061 124.69 700.561Z" fill="#FFE18D"/>
<path d="M111.57 721.94C115.19 719.04 118.85 716.19 122.55 713.4C125.11 710.33 127.76 707.33 130.51 704.42C129.06 705.09 127.6 705.74 126.13 706.37C121.2 711.49 116.35 716.68 111.57 721.94Z" fill="#FFE18D"/>
<path d="M109.68 766.16C113.13 762.86 116.47 759.44 119.67 755.91C118.92 756.5 118.17 757.09 117.42 757.68C114.89 760.55 112.31 763.37 109.68 766.16Z" fill="#FFE18D"/>
<path d="M103.87 756.94C103.64 757.44 103.39 757.93 103.17 758.44C101.16 759.93 99.1301 761.39 97.1101 762.86C96.3101 763.58 95.4901 764.28 94.7001 765C93.5801 767.06 92.4801 769.12 91.3901 771.19C96.7801 766.55 102.18 761.91 107.57 757.28C112.87 751.8 118.16 746.33 123.46 740.85C116.85 746.14 110.28 751.47 103.87 756.94Z" fill="#FFE18D"/>
<path d="M169.19 693.56C169.06 693.24 168.92 692.92 168.74 692.63C168.81 692.29 168.85 691.94 168.83 691.61C168.89 691.28 168.96 690.93 169.02 690.59C168.05 690.98 167.09 691.39 166.15 691.83C165.03 692.35 163.93 692.89 162.83 693.44C159.79 698.91 156.62 704.31 153.3 709.61C154.41 708.61 155.5 707.6 156.59 706.59C160.79 702.25 164.99 697.91 169.19 693.56Z" fill="#FFE18D"/>
<path d="M158.39 667.73C157.6 668.17 156.82 668.61 156.04 669.06C150.95 673.32 145.25 676.76 139.07 679.31C136.52 680.97 134.01 682.67 131.54 684.43C130.93 685.55 130.36 686.711 129.84 687.891C131.82 687.471 133.78 686.97 135.71 686.37C143.52 680.47 151.09 674.26 158.39 667.73Z" fill="#FFE18D"/>
<path d="M136.58 695.761C138.93 694.541 141.27 693.281 143.57 691.961C145.89 689.981 148.28 688.041 150.74 686.181C151.62 685.521 152.52 685.571 153.24 686.011C157.6 683.161 161.85 680.131 165.97 676.931C166.74 675.271 167.48 673.601 168.12 671.911C168.12 671.911 168.12 671.901 168.12 671.891C161.11 679.281 152.69 685.051 143.35 688.921C141.01 691.241 138.76 693.541 136.58 695.751V695.761Z" fill="#FFE18D"/>
<path d="M140.93 719.279C139.78 720.589 138.64 721.909 137.47 723.209C138.06 722.719 138.65 722.229 139.24 721.739C139.81 720.919 140.37 720.099 140.93 719.279Z" fill="#FFE18D"/>
<path d="M137 742.34C135.65 744.27 134.26 746.16 132.84 748.01C143.09 739.64 153.23 731.13 163.26 722.49C163.19 722.41 163.13 722.33 163.07 722.24C154.35 728.89 145.66 735.6 137 742.34Z" fill="#FFE18D"/>
<path d="M151.21 693.32C150.83 693.77 150.44 694.22 150.06 694.67C153.03 692.86 156.13 691.07 159.32 689.42C159.75 688.67 160.18 687.91 160.61 687.16C157.53 689.3 154.41 691.36 151.22 693.32H151.21Z" fill="#FFE18D"/>
<path d="M252.8 297.84C252.73 297.27 252.66 296.69 252.6 296.12C252.4 295.27 252.2 294.41 252.01 293.56C247.43 280.14 243.4 266.52 239.63 252.83C239.44 252.86 239.26 252.87 239.07 252.86C242.04 281.26 246.81 309.43 252.39 337.45C252.53 324.25 252.67 311.04 252.8 297.84Z" fill="#FFE18D"/>
<path d="M269.42 255.42C274.58 278.6 279.7 301.79 284.38 325.05C285.33 329.79 286.15 334.79 286.73 339.92C286.93 339.27 287.11 338.61 287.32 337.97C284.38 309.95 277.45 282.26 269.35 255.07C269.37 255.19 269.39 255.31 269.41 255.42H269.42ZM282.03 313.36C281.07 308.3 280.12 303.24 279.16 298.17C278.49 294.63 277.82 291.09 277.15 287.55C279.33 296.04 280.96 304.66 282.02 313.36H282.03Z" fill="#FFE18D"/>
<path d="M274.16 369.78C274.16 370.01 274.18 370.24 274.19 370.47C274.41 370.14 274.63 369.82 274.84 369.49C274.79 369.35 274.74 369.21 274.69 369.07C274.51 369.3 274.33 369.54 274.16 369.78Z" fill="#FFE18D"/>
<path d="M253.46 403.909C253.55 403.369 253.64 402.829 253.73 402.289C252.93 403.039 252.14 403.799 251.32 404.529C251.23 404.609 251.13 404.679 251.03 404.749C251.05 405.089 251.07 405.419 251.09 405.749C251.89 405.149 252.68 404.529 253.46 403.909Z" fill="#FFE18D"/>
<path d="M288.81 368.889C288.82 367.739 288.81 366.589 288.81 365.439C288.68 365.809 288.55 366.189 288.41 366.559C288.54 367.339 288.68 368.109 288.81 368.889Z" fill="#FFE18D"/>
<path d="M271.33 244.03C278.72 260.61 284.75 277.78 289.31 295.37C285.52 276.71 279.23 258.57 270.55 241.48C270.81 242.33 271.07 243.18 271.33 244.02V244.03Z" fill="#FFE18D"/>
<path d="M248.04 355.56C247.63 353.93 247.2 352.31 246.8 350.68C247.64 358.75 248.38 366.83 249.03 374.92C249.93 380.96 250.51 387.04 250.74 393.16C251.34 392.09 252 391.05 252.73 390.09C252.08 386.98 251.95 383.71 251.94 380.68C251.92 377.32 251.94 373.97 251.98 370.61C250.69 365.83 249.44 361.04 248.22 356.25C248.26 356.61 248.28 356.98 248.33 357.35C248.29 358 248.25 358.65 248.21 359.3C248.15 358.06 248.1 356.82 248.05 355.58L248.04 355.56Z" fill="#FFE18D"/>
<path d="M265.11 374.23C262.23 360.41 259.7 346.53 257.52 332.59C257.5 334.53 257.48 336.48 257.46 338.42C257.38 345.91 257.3 353.4 257.22 360.9C258.65 367.64 260.11 374.37 261.59 381.09C262.65 378.74 263.82 376.46 265.11 374.23Z" fill="#FFE18D"/>
<path d="M272.83 319.609C274.38 326.759 275.86 333.919 277.25 341.099C277.44 342.079 277.02 343.039 276.36 343.699C277.07 348.269 277.76 352.839 278.42 357.419C279.35 356.539 280.3 355.679 281.27 354.839C279.24 342.929 277.2 331.019 275.16 319.109C274.49 319.599 273.59 319.789 272.82 319.619L272.83 319.609Z" fill="#FFE18D"/>
<path d="M268.97 367.85C268.63 361.08 267.97 354.33 267.11 347.6C265.68 343.3 264.3 338.99 262.97 334.65C264.75 345.75 266.74 356.82 268.97 367.84V367.85Z" fill="#FFE18D"/>
<path d="M239.03 291.93C239.07 292.14 239.11 292.35 239.15 292.56C237.81 284.02 236.6 275.47 235.53 266.9C235.42 274.73 235.49 282.56 235.85 290.36C237.16 289.98 238.74 290.41 239.03 291.93Z" fill="#FFE18D"/>
<path d="M263.05 270.569C262.54 267.399 262.02 264.219 261.52 261.039C261.71 262.549 261.88 264.069 262.04 265.589C262.38 267.249 262.71 268.909 263.04 270.569H263.05Z" fill="#FFE18D"/>
<path d="M239.06 360.08C239.12 358.13 239.21 356.18 239.36 354.22C239.47 352.81 240.61 351.81 241.79 351.62C240.71 341.12 239.46 330.63 238.06 320.16C237.38 333.52 237.37 346.9 238.05 360.24C238.38 360.12 238.72 360.06 239.06 360.07V360.08Z" fill="#FFE18D"/>
<path d="M257.93 293.27C257.93 293.93 257.92 294.58 257.91 295.24C258.15 295.92 258.38 296.59 258.61 297.27C258.38 295.94 258.15 294.61 257.93 293.28V293.27Z" fill="#FFE18D"/>
<path d="M293.29 348.989C293.32 348.509 293.33 348.019 293.35 347.539C293.17 345.509 292.94 343.519 292.71 341.619C292.93 344.079 293.13 346.539 293.29 348.999V348.989Z" fill="#FFE18D"/>
<path d="M242.32 243.379C242.68 244.709 243.02 246.029 243.38 247.359C243.05 245.109 242.74 242.859 242.44 240.609C242.4 241.529 242.37 242.449 242.32 243.379Z" fill="#FFE18D"/>
<path d="M248.41 244.89C248.25 244.37 248.1 243.85 247.94 243.32C248.14 244.76 248.34 246.2 248.56 247.64C248.51 246.72 248.46 245.81 248.41 244.89Z" fill="#FFE18D"/>
<path d="M420.27 409.519C419.46 406.679 418.54 403.899 417.52 401.189C418.48 403.969 419.33 406.799 420.06 409.649C420.13 409.599 420.2 409.569 420.27 409.529V409.519Z" fill="#FFE18D"/>
<path d="M400.78 387.379C400.36 387.949 400.11 388.639 399.99 389.369C401.89 394.379 403.62 399.439 405.17 404.549C404.69 402.239 404.52 399.839 404.37 397.419C403.8 394.059 403.2 390.709 402.58 387.359C402.4 387.459 402.22 387.569 402.05 387.689C401.65 387.559 401.25 387.449 400.83 387.379C400.81 387.379 400.8 387.379 400.79 387.379H400.78Z" fill="#FFE18D"/>
<path d="M412.13 414.66C413.65 425.4 414.9 436.17 415.89 446.96C415.68 437.08 415.47 427.19 415.25 417.31C415.24 416.67 415.42 416.15 415.71 415.75C414.48 415.61 413.27 415.24 412.13 414.66Z" fill="#FFE18D"/>
<path d="M410.79 405.55C410.91 405.85 411.04 406.15 411.18 406.45C411.92 407.95 413.35 409.53 415 410.33C413.61 405.13 411.86 400.02 409.64 395.03C409.54 394.81 409.42 394.52 409.27 394.18C409.35 395.27 409.42 396.38 409.48 397.49C409.93 400.18 410.37 402.87 410.79 405.56V405.55Z" fill="#FFE18D"/>
<path d="M394.3 388.75C394.13 388.9 393.96 389.05 393.8 389.21C394.08 390.77 394.35 392.32 394.64 393.88C394.9 394.32 395.17 394.75 395.42 395.19C395.3 394.47 395.18 393.75 395.06 393.02C394.88 391.9 394.69 390.74 394.63 389.59C394.52 389.31 394.41 389.03 394.31 388.75H394.3Z" fill="#FFE18D"/>
<path d="M425.1 435.92C425.04 438.81 424.93 441.7 424.76 444.58C424.86 447.03 424.91 449.48 424.94 451.93C427.62 447.94 426.16 442.18 425.43 437.76C425.33 437.14 425.2 436.53 425.09 435.92H425.1Z" fill="#FFE18D"/>
<path d="M219.45 151.22C223.81 167.32 226.26 183.79 226.83 200.34C227.18 201.41 227.53 202.49 227.9 203.55C229.88 209.24 232.14 214.84 234.68 220.31C235.61 222.31 236.54 224.43 237.6 226.44C237.56 222.9 237.42 219.37 237.23 215.83C235.79 213.7 234.36 210.75 234.08 210.23C233.42 209 232.8 207.77 232.17 206.53C233.73 208.68 235.38 210.78 237.06 212.85C236.69 207.13 236.16 201.42 235.42 195.73C235.08 194.44 234.74 193.15 234.41 191.86C232.28 188.38 230.31 184.82 228.51 181.16C227.99 176.31 227.27 171.48 226.37 166.68C226.29 166.23 226.19 165.79 226.1 165.34C227.8 169.04 229.37 172.79 230.82 176.59C229.26 169.29 227.89 161.94 226.74 154.54C226.64 153.88 226.81 153.35 227.12 152.93C225.62 148.89 224.07 144.87 222.47 140.87C221.04 138.31 219.56 135.77 218.03 133.26C217.73 138.71 217.68 144.16 217.87 149.61C218.59 149.81 219.21 150.33 219.45 151.21V151.22Z" fill="#FEB500"/>
<path d="M217.68 241.46C217.86 241.4 218.04 241.32 218.22 241.25C218.06 240.75 217.9 240.25 217.74 239.75C217.72 240.32 217.69 240.89 217.67 241.46H217.68Z" fill="#FEB500"/>
<path d="M243.29 204.89C243.22 204.41 243.14 203.94 243.06 203.46C242.13 199.88 241.16 196.31 240.15 192.75C240.25 193.48 240.36 194.2 240.46 194.93C241.36 198.26 242.3 201.58 243.29 204.89Z" fill="#FEB500"/>
<path d="M207.5 193.67C207.74 211.86 207.98 230.05 208.22 248.24C209.6 248.78 211.17 248.47 212.49 247.63C213.28 240.92 212.75 233.65 212.75 227.16C212.75 225.28 212.73 223.4 212.71 221.53C210.5 212.33 208.76 203.04 207.5 193.68V193.67Z" fill="#FEB500"/>
<path d="M202.79 222.251C202.74 218.841 202.7 215.431 202.65 212.021C201.99 209.851 201.36 207.661 200.79 205.461C201.33 211.071 201.99 216.671 202.79 222.251Z" fill="#FEB500"/>
<path d="M193.16 134.211C191.54 136.041 190.66 138.381 190.04 140.781C187.31 144.451 186.58 149.461 186.22 153.891C185.65 160.961 185.57 168.031 185.95 175.081C187.57 160.761 190.54 146.591 194.79 132.801C194.2 133.201 193.65 133.671 193.16 134.211Z" fill="#FEB500"/>
<path d="M202.33 187.6C202.07 167.81 201.81 148.02 201.55 128.23C201.45 128.53 201.33 128.83 201.23 129.13C201.09 130.37 200.98 131.59 200.86 132.77C199.54 145.86 198.96 159.02 199.06 172.17C199.92 177.36 201.01 182.51 202.34 187.6H202.33Z" fill="#FEB500"/>
<path d="M210.19 143.67C210.23 143.89 210.27 144.12 210.31 144.34C210.31 144.35 210.31 144.36 210.31 144.37C214.59 168.05 217.15 191.99 217.72 216.05C217.76 217.67 217.79 219.29 217.82 220.92C218.67 224.45 219.59 227.96 220.59 231.46C221.7 221.68 222.11 211.85 221.84 202.04C221.7 201.42 221.57 200.79 221.44 200.17C213.39 174.73 210.94 147.77 214 121.25C213.14 120.09 212.29 118.93 211.4 117.78C210.73 116.91 209.86 116.32 208.93 115.98C208.1 116.05 207.28 116.32 206.49 116.83C206.6 125.31 206.71 133.78 206.83 142.26C208.15 141.59 209.86 141.83 210.2 143.66L210.19 143.67Z" fill="#FEB500"/>
<path d="M194.27 154.91C193.17 160.18 192.24 165.48 191.53 170.82C190.11 181.37 189.48 192.02 189.58 202.66C190.71 207.81 192.12 212.89 193.85 217.88C195.42 222.71 197.22 227.46 199.22 232.14C194.97 206.64 193.26 180.76 194.27 154.92V154.91Z" fill="#FEB500"/>
<path d="M225.39 233.891C226.01 232.581 226.49 231.171 226.84 229.731C227.64 228.981 228.23 228.001 228.44 226.881C227.81 224.831 227.19 222.771 226.6 220.711C226.34 225.111 225.92 229.501 225.39 233.891Z" fill="#FEB500"/>
<path d="M243.71 175.881C244.02 175.901 244.31 175.991 244.59 176.121C243.22 172.751 241.75 169.491 240.35 166.391C240.47 166.821 240.6 167.251 240.71 167.681C241.76 170.391 242.75 173.131 243.7 175.881H243.71Z" fill="#FEB500"/>
<path d="M242.5 219.199C242.61 222.019 242.65 224.849 242.67 227.679C243.51 227.379 244.3 226.969 245.02 226.449C244.16 224.039 243.31 221.629 242.49 219.199H242.5Z" fill="#FEB500"/>
<path d="M316.85 705.531C319.49 702.691 321.85 699.581 324 696.301C323.97 696.331 323.94 696.361 323.9 696.391C321.85 698.341 319.91 700.391 318.06 702.511C317.62 703.501 317.22 704.511 316.84 705.531H316.85Z" fill="#FEB500"/>
<path d="M352.79 679.031C352.52 678.881 352.11 678.871 351.66 678.931C351.85 679.531 351.86 680.201 351.62 680.841C349.59 686.121 347.29 691.261 344.76 696.281C347.78 691.981 350.74 687.641 353.63 683.251C353.99 681.701 354.04 679.711 352.78 679.041L352.79 679.031Z" fill="#FEB500"/>
<path d="M354.61 673.27C354.23 673.51 353.86 673.77 353.48 674.02C353.83 674.08 354.17 674.17 354.51 674.28C356.29 674.86 357.5 675.74 358.27 676.83C360.29 675.86 363.18 677.85 361.71 680.15C360.66 681.78 359.59 683.4 358.53 685.03C358.51 685.1 358.47 685.18 358.45 685.25C359.63 683.5 360.78 681.72 361.89 679.91C364.63 675.44 358.71 670.64 354.61 673.27Z" fill="#FEB500"/>
<path d="M331.8 693.22C327.2 701.4 321.68 708.96 314.47 714.77C314.26 716.11 314.08 717.46 313.98 718.83C313.69 722.7 318.93 724.94 321.84 722.87C323.73 721.52 325.59 720.13 327.41 718.7C326.77 717.79 326.76 716.39 327.48 715.38C333.76 706.48 339.09 697.01 343.53 687.1C340.73 689.15 337.87 691.11 334.9 692.5C333.93 692.95 332.86 693.22 331.81 693.23L331.8 693.22Z" fill="#FEB500"/>
<path d="M435.63 397.269C422.03 321.949 392.26 250.539 354.83 184.089C345.45 167.439 335.66 150.989 325.27 134.959C315.42 119.759 304.47 104.879 290.48 93.1994C283.69 87.5394 275.91 82.6694 267.62 79.0494C257.18 75.8294 246.37 73.7694 236.3 72.1694C235.28 72.0094 234.48 71.6294 233.88 71.1094C231.8 71.5894 229.75 72.1694 227.74 72.8394C226.21 73.0694 224.7 73.3694 223.19 73.7194C224.6 75.6094 226.03 77.4894 227.43 79.3894C229.67 82.4394 231.88 85.5194 234.07 88.5994C271.65 141.579 302.23 199.759 323.08 261.309C341.29 315.069 352.04 371.749 352.93 428.589C350.42 427.819 347.86 427.159 345.26 426.599C343.89 362.349 330 298.759 306.83 238.899C286.6 186.629 259.33 137.259 226.84 91.6294C223.13 86.4094 219.35 81.2494 215.5 76.1294C210.62 78.0694 205.92 80.7594 201.5 84.3194C193.55 90.7194 187.59 99.0494 184.67 108.529C184.38 108.989 184.1 109.449 183.82 109.909C181.99 112.899 180.3 115.959 178.78 119.099C173.02 130.999 169.75 143.389 168.27 155.999C167.63 161.439 167.32 166.919 167.29 172.419C167.19 189.529 169.76 206.829 173.33 223.689C177.57 243.739 183.16 263.479 187.35 283.529C190.8 299.999 193.23 316.669 194.75 333.429C197.76 366.739 197.1 400.389 192.85 433.559C192.62 435.359 192.36 437.149 192.11 438.949C191.86 439.679 191.64 440.429 191.5 441.219C190.1 449.009 188.75 456.809 187.44 464.619C186.43 470.659 185.46 476.699 184.51 482.739C184.27 484.259 184.02 485.779 183.79 487.299L180.95 496.669L176.46 511.489C176.38 511.429 176.3 511.379 176.23 511.319C166.14 544.749 152.41 577.079 135.24 607.519C132.76 611.909 130.22 616.269 127.61 620.579C110.15 649.299 89.5099 675.969 66.1099 700.089C42.4499 724.479 14.8499 749.109 7.03987 783.679C4.51987 794.839 4.33987 806.379 6.66987 817.099C8.33987 816.269 10.3399 815.819 12.6899 815.879C13.6499 815.899 14.4699 816.149 15.1599 816.529C16.4599 816.649 17.7399 817.239 18.7499 818.449C23.6799 824.339 28.5999 830.229 33.5299 836.119C37.4099 840.759 42.7899 845.589 44.8199 851.429C45.7299 854.039 45.7399 856.469 45.1199 858.589C104.25 833.339 162.85 804.689 210.43 760.659C240.54 732.799 265.82 700.139 286.05 664.569C289.05 664.539 292.05 664.389 295.05 664.129C270.32 708.749 237.76 748.999 198.19 781.359C155.25 816.469 105.34 840.959 54.5799 862.829C80.0999 868.239 108.12 862.659 132.94 857.379C197.45 843.659 259.58 815.629 311 774.089C364 731.269 403.16 674.789 424.11 609.899C428.07 597.639 431.37 585.199 434.08 572.629C434.79 570.929 435.5 569.239 436.21 567.539C437.44 564.609 437.55 561.489 436.87 558.479C446.34 505.329 445.24 450.259 435.67 397.249L435.63 397.269ZM170.21 680.039C170.19 681.629 170.07 683.239 169.9 684.799C168.89 685.149 167.89 685.519 166.89 685.919C167.01 685.689 167.14 685.459 167.26 685.229C167.95 683.909 168.81 682.269 169.7 680.449C169.87 680.319 170.04 680.169 170.21 680.039ZM162.84 693.429C163.94 692.879 165.05 692.339 166.16 691.819C167.09 691.389 168.05 690.969 169.03 690.579C168.97 690.919 168.9 691.269 168.84 691.599C168.85 691.939 168.82 692.279 168.75 692.619C168.93 692.909 169.08 693.229 169.2 693.549C165 697.889 160.8 702.229 156.6 706.579C155.51 707.589 154.41 708.599 153.31 709.599C156.63 704.289 159.81 698.899 162.84 693.429ZM150.06 694.669C150.44 694.219 150.83 693.769 151.21 693.319C154.4 691.359 157.53 689.299 160.6 687.159C160.17 687.919 159.74 688.669 159.31 689.419C156.12 691.069 153.02 692.859 150.05 694.669H150.06ZM168.12 671.899C168.12 671.899 168.12 671.909 168.12 671.919C167.47 673.609 166.74 675.279 165.97 676.939C161.85 680.139 157.6 683.169 153.24 686.019C152.52 685.579 151.62 685.529 150.74 686.189C148.28 688.049 145.9 689.979 143.57 691.969C141.27 693.289 138.93 694.539 136.58 695.769C138.75 693.569 141.01 691.259 143.35 688.939C152.7 685.069 161.12 679.299 168.12 671.909V671.899ZM140.93 719.279C140.37 720.099 139.8 720.919 139.24 721.739C138.65 722.229 138.07 722.719 137.47 723.209C138.64 721.909 139.78 720.599 140.93 719.279ZM131.54 684.429C134.01 682.669 136.52 680.969 139.07 679.309C145.24 676.749 150.95 673.309 156.04 669.059C156.82 668.619 157.61 668.169 158.39 667.729C151.09 674.259 143.52 680.479 135.71 686.369C133.78 686.969 131.82 687.469 129.84 687.889C130.36 686.709 130.93 685.549 131.54 684.429ZM123.87 692.749C124.31 693.289 124.94 693.689 125.61 693.729C123.72 695.059 121.81 696.359 119.89 697.649C121.21 696.009 122.54 694.379 123.87 692.759V692.749ZM124.68 700.559C124.18 701.069 123.69 701.569 123.19 702.079C122.48 702.379 121.77 702.699 121.06 702.999C122.27 702.189 123.48 701.379 124.68 700.559ZM107.71 713.289C110.1 712.519 112.48 711.709 114.84 710.859C107.83 718.379 100.97 726.049 94.1599 733.759C93.8999 733.719 93.6399 733.739 93.3699 733.789C97.8999 726.799 102.7 719.979 107.7 713.289H107.71ZM78.2799 762.209C79.8099 760.859 81.3399 759.509 82.8699 758.159C80.1499 762.509 77.7399 767.059 75.6899 771.809C75.0399 772.279 74.3999 772.749 73.7399 773.209C74.9299 769.389 76.4499 765.709 78.2699 762.209H78.2799ZM82.9599 776.369C82.3199 777.599 81.6899 778.839 81.0599 780.079C79.7199 781.229 78.3899 782.379 77.0499 783.529C76.8399 783.709 76.6899 783.919 76.5799 784.129C76.4699 783.979 76.3699 783.829 76.2699 783.669C78.4499 781.189 80.6699 778.739 82.9599 776.369ZM67.9699 793.859C70.8399 791.279 73.7099 788.689 76.5799 786.109C76.7799 786.529 77.0699 786.929 77.4299 787.229C76.8499 788.369 76.2799 789.519 75.6999 790.659C72.4999 792.559 69.2999 794.449 66.0999 796.349C66.7099 795.509 67.3499 794.689 67.9699 793.869V793.859ZM54.1099 807.999C54.1499 807.009 54.5399 806.039 55.3799 805.209C55.6099 805.669 55.9899 806.049 56.4499 806.319C55.6699 806.879 54.8899 807.439 54.0999 807.999H54.1099ZM105.85 778.719C105.61 778.979 105.38 779.229 105.14 779.489C104.74 779.909 104.28 780.239 103.78 780.479C90.2699 791.819 76.0399 802.379 62.0699 812.759C61.6799 813.049 61.2899 813.249 60.8899 813.399C60.1799 813.129 59.5099 812.729 58.8799 812.159C71.9199 803.109 85.0299 793.849 97.3599 783.739C100.2 782.059 103.05 780.369 105.89 778.689C105.87 778.699 105.86 778.719 105.84 778.729L105.85 778.719ZM91.3699 771.189C92.4599 769.119 93.5599 767.059 94.6799 764.999C95.4699 764.279 96.2899 763.579 97.0899 762.859C99.1099 761.389 101.14 759.929 103.15 758.439C103.38 757.939 103.62 757.439 103.85 756.939C110.26 751.459 116.83 746.139 123.44 740.849C118.14 746.329 112.85 751.799 107.55 757.279C102.16 761.919 96.7599 766.559 91.3699 771.189ZM109.66 766.159C112.28 763.369 114.86 760.549 117.4 757.679C118.15 757.089 118.9 756.499 119.65 755.909C116.45 759.439 113.11 762.859 109.66 766.159ZM124.29 761.859C123.55 762.299 122.82 762.729 122.08 763.169C123.68 761.899 125.26 760.609 126.85 759.329C126.01 760.179 125.14 761.019 124.29 761.869V761.859ZM122.53 713.389C118.83 716.179 115.17 719.029 111.55 721.929C116.33 716.669 121.18 711.469 126.11 706.359C127.58 705.719 129.04 705.079 130.49 704.409C127.74 707.319 125.09 710.319 122.53 713.389ZM132.82 748.009C134.24 746.149 135.63 744.259 136.98 742.339C145.64 735.599 154.33 728.899 163.05 722.239C163.11 722.329 163.17 722.409 163.24 722.489C153.21 731.129 143.07 739.639 132.82 748.009ZM175.64 700.819C172.56 704.659 169.69 708.679 167.03 712.849C158.98 718.959 150.94 725.099 142.95 731.279C142.78 730.939 142.51 730.649 142.18 730.429C154.19 718.459 166.2 706.499 178.2 694.529L180.58 692.379C178.98 695.219 177.34 698.039 175.64 700.819ZM221.94 805.239C217.64 810.549 211.54 813.839 204.85 814.769C204.38 814.869 203.93 814.929 203.5 814.929C203.26 814.949 203.02 814.979 202.78 814.999C198.19 815.309 196.6 810.399 198.31 807.289C198.38 807.039 198.46 806.799 198.57 806.549C200.83 801.189 206.08 797.829 211.81 797.519C212.17 797.499 212.51 797.519 212.84 797.579C214.5 797.129 216.21 796.839 217.94 796.729C222.56 796.439 224.61 801.949 221.94 805.249V805.239ZM323.88 696.389C323.88 696.389 323.94 696.329 323.98 696.299C321.83 699.579 319.47 702.689 316.83 705.529C317.2 704.509 317.61 703.499 318.05 702.509C319.9 700.389 321.84 698.339 323.89 696.389H323.88ZM318.32 591.539C318.65 590.759 319.36 589.079 319.48 588.799C319.81 588.039 320.14 587.279 320.47 586.509L315.84 605.679C314.47 606.469 313.07 607.209 311.65 607.919C313.84 602.439 316.05 596.979 318.32 591.529V591.539ZM238.03 320.159C239.42 330.629 240.67 341.109 241.76 351.619C240.58 351.809 239.44 352.809 239.33 354.219C239.18 356.169 239.09 358.129 239.03 360.079C238.69 360.069 238.35 360.129 238.02 360.249C237.34 346.909 237.35 333.529 238.03 320.169V320.159ZM235.82 290.349C235.46 282.549 235.39 274.709 235.5 266.889C236.57 275.459 237.78 284.019 239.12 292.549C239.08 292.339 239.04 292.129 239 291.919C238.71 290.399 237.13 289.969 235.82 290.349ZM248.18 356.229C249.41 361.029 250.65 365.809 251.94 370.589C251.9 373.949 251.88 377.309 251.9 380.659C251.91 383.689 252.04 386.959 252.69 390.069C251.96 391.039 251.3 392.069 250.7 393.139C250.47 387.029 249.9 380.939 248.99 374.899C248.34 366.809 247.6 358.729 246.76 350.659C247.17 352.289 247.59 353.909 248 355.539C248.05 356.779 248.1 358.019 248.16 359.259C248.2 358.609 248.24 357.959 248.28 357.309C248.24 356.949 248.21 356.579 248.17 356.209L248.18 356.229ZM277.22 341.089C275.82 333.909 274.34 326.749 272.8 319.599C273.57 319.769 274.47 319.569 275.14 319.089C277.17 330.999 279.21 342.909 281.25 354.819C280.27 355.659 279.32 356.519 278.39 357.399C277.73 352.819 277.04 348.249 276.33 343.679C277 343.029 277.41 342.069 277.22 341.079V341.089ZM274.81 369.489C274.59 369.819 274.37 370.139 274.16 370.469C274.16 370.239 274.14 370.009 274.13 369.779C274.31 369.539 274.48 369.309 274.66 369.069C274.71 369.209 274.76 369.349 274.81 369.489ZM288.38 366.549C288.52 366.179 288.65 365.809 288.78 365.429C288.78 366.579 288.79 367.729 288.78 368.879C288.65 368.099 288.51 367.329 288.38 366.549ZM293.33 347.539C293.31 348.019 293.29 348.509 293.27 348.989C293.11 346.529 292.92 344.069 292.69 341.609C292.92 343.509 293.15 345.499 293.33 347.529V347.539ZM289.28 295.379C284.72 277.789 278.7 260.609 271.3 244.039C271.04 243.189 270.78 242.339 270.52 241.499C279.2 258.589 285.49 276.729 289.28 295.389V295.379ZM287.3 337.959C287.09 338.609 286.9 339.259 286.71 339.909C286.13 334.789 285.31 329.779 284.36 325.039C279.68 301.779 274.56 278.589 269.4 255.409C269.38 255.289 269.36 255.169 269.34 255.059C277.43 282.249 284.37 309.939 287.31 337.959H287.3ZM268.94 367.849C266.72 356.819 264.72 345.759 262.94 334.659C264.27 338.989 265.65 343.309 267.08 347.609C267.94 354.339 268.59 361.089 268.94 367.859V367.849ZM263.02 270.569C262.69 268.909 262.35 267.249 262.02 265.589C261.85 264.069 261.68 262.559 261.5 261.039C262 264.219 262.51 267.389 263.03 270.569H263.02ZM257.9 293.269C258.12 294.599 258.35 295.929 258.58 297.259C258.34 296.589 258.11 295.909 257.88 295.229C257.88 294.569 257.89 293.919 257.9 293.259V293.269ZM257.43 338.429C257.45 336.489 257.47 334.539 257.49 332.599C259.68 346.539 262.21 360.419 265.08 374.239C263.79 376.459 262.62 378.749 261.56 381.099C260.08 374.379 258.62 367.649 257.19 360.909C257.27 353.419 257.35 345.929 257.43 338.429ZM253.43 403.909C252.65 404.529 251.86 405.149 251.06 405.749C251.04 405.419 251.02 405.079 251 404.749C251.1 404.679 251.2 404.609 251.29 404.529C252.11 403.799 252.9 403.039 253.7 402.289C253.61 402.829 253.52 403.369 253.43 403.909ZM248.39 244.899C248.44 245.819 248.49 246.729 248.54 247.649C248.33 246.209 248.12 244.769 247.92 243.329C248.08 243.849 248.23 244.369 248.39 244.899ZM242.65 227.689C242.63 224.859 242.59 222.029 242.48 219.209C243.29 221.629 244.14 224.049 245.01 226.459C244.28 226.979 243.49 227.399 242.66 227.689H242.65ZM243.36 247.369C243 246.039 242.66 244.719 242.3 243.389C242.35 242.469 242.38 241.549 242.42 240.619C242.72 242.869 243.03 245.119 243.36 247.369ZM244.57 176.129C244.29 175.999 244 175.899 243.69 175.889C242.74 173.139 241.75 170.399 240.7 167.689C240.58 167.259 240.46 166.829 240.34 166.399C241.74 169.499 243.2 172.769 244.58 176.129H244.57ZM243.04 203.469C243.12 203.949 243.2 204.419 243.27 204.899C242.28 201.589 241.34 198.279 240.44 194.939C240.34 194.209 240.24 193.489 240.13 192.759C241.14 196.319 242.11 199.889 243.04 203.469ZM239.6 252.839C243.37 266.529 247.4 280.149 251.98 293.569C252.18 294.419 252.37 295.279 252.57 296.129C252.63 296.699 252.71 297.279 252.77 297.849C252.63 311.049 252.49 324.259 252.36 337.459C246.78 309.439 242.01 281.269 239.04 252.869C239.23 252.879 239.41 252.869 239.6 252.839ZM218.02 133.279C219.55 135.789 221.03 138.329 222.46 140.889C224.06 144.889 225.61 148.909 227.11 152.949C226.79 153.369 226.63 153.899 226.73 154.559C227.88 161.959 229.24 169.309 230.81 176.609C229.36 172.809 227.79 169.059 226.09 165.359C226.18 165.809 226.27 166.249 226.36 166.699C227.26 171.499 227.98 176.329 228.5 181.179C230.3 184.829 232.27 188.399 234.4 191.879C234.73 193.169 235.06 194.459 235.41 195.749C236.15 201.439 236.68 207.149 237.05 212.869C235.37 210.799 233.72 208.699 232.16 206.549C232.79 207.789 233.42 209.029 234.07 210.249C234.35 210.769 235.78 213.729 237.22 215.849C237.41 219.379 237.55 222.919 237.59 226.459C236.53 224.449 235.6 222.329 234.67 220.329C232.13 214.859 229.87 209.259 227.89 203.569C227.52 202.499 227.17 201.429 226.82 200.359C226.25 183.819 223.8 167.349 219.44 151.239C219.2 150.349 218.58 149.839 217.86 149.639C217.67 144.189 217.73 138.739 218.03 133.289L218.02 133.279ZM228.42 226.889C228.21 228.009 227.62 228.999 226.82 229.739C226.48 231.179 225.99 232.589 225.37 233.899C225.9 229.509 226.31 225.119 226.58 220.719C227.17 222.779 227.79 224.839 228.42 226.889ZM208.91 115.999C209.84 116.339 210.7 116.919 211.38 117.799C212.26 118.939 213.12 120.109 213.98 121.269C210.92 147.789 213.37 174.749 221.42 200.189C221.56 200.809 221.68 201.439 221.82 202.059C222.09 211.869 221.68 221.689 220.57 231.479C219.58 227.979 218.66 224.469 217.8 220.939C217.77 219.319 217.74 217.689 217.7 216.069C217.13 192.009 214.57 168.069 210.29 144.389C210.29 144.379 210.29 144.369 210.29 144.359C210.25 144.139 210.21 143.909 210.17 143.689C209.84 141.869 208.13 141.619 206.8 142.289C206.69 133.809 206.58 125.339 206.46 116.859C207.25 116.349 208.07 116.089 208.9 116.009L208.91 115.999ZM218.2 241.259C218.02 241.329 217.84 241.399 217.66 241.469C217.68 240.899 217.71 240.329 217.73 239.759C217.89 240.259 218.05 240.759 218.2 241.259ZM212.48 247.639C211.16 248.479 209.59 248.789 208.21 248.249C207.97 230.059 207.73 211.869 207.49 193.679C208.75 203.039 210.5 212.339 212.7 221.529C212.72 223.409 212.74 225.289 212.74 227.159C212.74 233.649 213.27 240.919 212.48 247.629V247.639ZM202.77 222.269C201.98 216.689 201.32 211.089 200.77 205.479C201.34 207.679 201.97 209.869 202.63 212.039C202.67 215.449 202.72 218.859 202.77 222.269ZM200.84 132.789C200.96 131.619 201.07 130.389 201.21 129.149C201.31 128.849 201.42 128.549 201.53 128.249C201.79 148.039 202.05 167.829 202.31 187.619C200.98 182.529 199.89 177.379 199.03 172.189C198.94 159.039 199.52 145.879 200.83 132.789H200.84ZM185.93 175.099C185.55 168.049 185.63 160.979 186.2 153.909C186.56 149.479 187.29 144.459 190.02 140.799C190.64 138.399 191.52 136.059 193.14 134.229C193.63 133.679 194.18 133.219 194.77 132.819C190.52 146.609 187.55 160.779 185.93 175.099ZM193.83 217.899C192.1 212.919 190.69 207.829 189.56 202.679C189.45 192.039 190.09 181.389 191.51 170.839C192.23 165.499 193.16 160.199 194.25 154.929C193.24 180.779 194.95 206.659 199.2 232.149C197.2 227.479 195.4 222.719 193.83 217.889V217.899ZM196.99 679.799C196.7 679.869 196.41 679.989 196.15 680.199C194.96 681.169 193.8 682.159 192.65 683.159C192.23 683.039 191.8 682.949 191.38 682.849C191.43 682.749 191.48 682.639 191.53 682.539L196.07 678.439C196.77 677.809 197.53 677.409 198.3 677.209C198.4 677.709 198.51 678.209 198.61 678.709C198.05 679.049 197.5 679.409 196.98 679.799H196.99ZM267.67 790.409C263.68 797.269 257.44 801.789 249.63 803.279C246.22 803.929 243.36 799.819 244.89 796.809C244.95 796.689 245.02 796.569 245.08 796.449C245.08 795.409 245.41 794.339 246.02 793.399C247.95 790.409 250.69 787.999 253.83 786.349C256.05 784.779 258.52 783.529 261.18 782.679C264.14 781.739 266.48 783.649 267.22 785.939C268.23 787.149 268.61 788.759 267.66 790.409H267.67ZM275.91 749.409C273.09 757.699 267.33 763.959 259.2 767.279C255.65 768.729 251.66 764.899 252.65 761.309C252.69 761.159 252.74 761.019 252.78 760.879C252.56 759.749 252.68 758.519 253.13 757.369C254.57 753.709 257.01 750.499 260.05 748.039C262.11 745.849 264.51 743.959 267.21 742.459C270.21 740.789 273.16 742.349 274.46 744.669C275.81 745.759 276.59 747.419 275.91 749.409ZM313.64 759.239C311.33 765.669 306.65 770.789 300.65 773.869C300.24 774.119 299.83 774.329 299.43 774.459C299.21 774.559 299 774.659 298.78 774.759C294.54 776.559 291.43 772.449 292.01 768.949C292 768.689 291.99 768.439 292.01 768.169C292.38 762.369 296.23 757.459 301.54 755.279C301.87 755.139 302.2 755.059 302.53 754.989C303.95 754.019 305.46 753.179 307.07 752.509C311.33 750.709 315.09 755.239 313.65 759.229L313.64 759.239ZM327.45 715.399C326.73 716.409 326.74 717.809 327.38 718.719C325.56 720.149 323.71 721.539 321.81 722.889C318.9 724.959 313.66 722.719 313.95 718.849C314.05 717.479 314.23 716.129 314.44 714.789C321.65 708.979 327.17 701.419 331.77 693.239C332.82 693.239 333.89 692.959 334.86 692.509C337.83 691.119 340.69 689.159 343.49 687.109C339.06 697.019 333.72 706.489 327.44 715.389L327.45 715.399ZM353.62 683.269C350.73 687.659 347.77 691.999 344.75 696.299C347.28 691.279 349.57 686.139 351.61 680.859C351.85 680.229 351.84 679.559 351.65 678.949C352.1 678.899 352.51 678.909 352.78 679.049C354.04 679.729 353.99 681.709 353.63 683.259L353.62 683.269ZM361.87 679.929C360.76 681.739 359.61 683.519 358.43 685.269C358.46 685.199 358.49 685.119 358.51 685.049C359.57 683.429 360.64 681.809 361.69 680.169C363.17 677.869 360.28 675.869 358.25 676.849C357.48 675.759 356.27 674.879 354.49 674.299C354.15 674.189 353.8 674.109 353.46 674.039C353.84 673.789 354.21 673.539 354.59 673.289C358.69 670.649 364.61 675.449 361.87 679.929ZM356.48 271.049C356.05 269.359 356.43 267.899 357.24 266.779C357.31 265.149 357.55 263.509 357.96 261.869C358.97 257.909 363.31 256.949 366.36 259.229C374.35 265.229 377.8 276.039 374.87 285.569C373.8 289.039 369.39 291.079 366.47 288.209C361.6 283.419 358.16 277.689 356.47 271.049H356.48ZM380.05 358.449C374.83 360.729 371.39 355.709 369.74 351.549C367.77 346.599 367.49 341.309 368.28 336.099C368.54 334.399 369.41 333.309 370.54 332.729C372.06 329.129 377.34 329.579 379.27 332.429C382.12 336.639 383.89 341.409 384.36 346.489C384.76 350.749 384.58 356.469 380.05 358.449ZM394.62 393.889C394.33 392.329 394.06 390.779 393.78 389.219C393.94 389.059 394.11 388.909 394.28 388.759C394.39 389.039 394.5 389.319 394.6 389.599C394.67 390.749 394.85 391.909 395.03 393.029C395.15 393.749 395.27 394.469 395.39 395.199C395.14 394.759 394.87 394.329 394.61 393.889H394.62ZM390.81 320.249C390.52 319.639 390.23 319.029 389.94 318.419C386.77 314.139 385.53 308.819 386.8 303.459C387.67 299.769 392.36 298.179 395.2 300.819C400.35 305.629 402.6 312.959 400.62 319.789C399.13 324.949 392.92 324.689 390.81 320.239V320.249ZM399.98 389.379C400.1 388.649 400.35 387.959 400.77 387.389C400.79 387.389 400.8 387.389 400.81 387.389C401.23 387.459 401.64 387.569 402.03 387.699C402.2 387.579 402.38 387.469 402.56 387.369C403.18 390.719 403.79 394.069 404.35 397.429C404.5 399.849 404.67 402.249 405.15 404.559C403.6 399.449 401.87 394.379 399.97 389.379H399.98ZM410.78 405.559C410.36 402.869 409.93 400.179 409.47 397.489C409.41 396.379 409.34 395.269 409.26 394.179C409.4 394.519 409.53 394.809 409.63 395.029C411.85 400.019 413.6 405.129 414.99 410.329C413.34 409.529 411.91 407.949 411.17 406.449C411.02 406.149 410.9 405.849 410.78 405.549V405.559ZM412.12 414.669C413.26 415.239 414.47 415.609 415.7 415.759C415.41 416.159 415.23 416.679 415.24 417.319C415.45 427.209 415.66 437.089 415.88 446.969C414.89 436.169 413.64 425.399 412.12 414.669ZM420.05 409.649C419.31 406.799 418.47 403.979 417.51 401.189C418.53 403.899 419.46 406.689 420.26 409.519C420.19 409.559 420.12 409.589 420.05 409.639V409.649ZM424.94 451.939C424.91 449.489 424.85 447.039 424.76 444.589C424.93 441.709 425.04 438.819 425.1 435.929C425.21 436.539 425.33 437.159 425.44 437.769C426.17 442.179 427.64 447.949 424.95 451.939H424.94Z" fill="#FFC534"/>
</g>
<defs>
<clipPath id="clip0_307_197">
<rect width="443.4" height="866.99" fill="white"/>
</clipPath>
</defs>
</svg>
