<svg width="599" height="680" viewBox="0 0 599 680" fill="none" xmlns="http://www.w3.org/2000/svg">
<g clip-path="url(#clip0_307_121)">
<path d="M104.9 86.9904C109.87 85.7604 114.97 85.2004 120.11 85.0604C123.92 84.9604 127.75 85.0905 131.57 85.3605C134.71 85.5905 137.83 85.9104 140.93 86.2905C156.56 88.1905 171.99 90.7705 187.78 89.2205C202.21 87.8005 215.92 83.6904 229.05 77.6304C232.52 76.0304 236.03 74.3404 239.59 72.7404C249.26 68.3904 259.29 64.7505 269.77 65.6505C270.36 64.4505 270.97 63.2605 271.58 62.0605C271.79 61.6405 272 61.2205 272.21 60.8105C272.42 60.4005 272.62 59.9904 272.83 59.5905C272.83 59.5905 272.83 59.5905 272.82 59.5905C271.75 59.9104 270.68 60.2304 269.61 60.5504C267.92 60.4304 266.25 60.4305 264.58 60.5005C240.37 54.9505 218.12 42.2104 193.99 37.6904C190.94 37.6404 187.89 37.6505 184.85 37.7705C154.66 38.9905 125.11 53.1304 102 72.0904C90.14 81.8204 79.8701 93.4405 69.7601 104.93C66.0101 109.19 62.27 113.6 58.8 118.21C68.37 109.64 78.27 101.36 89.27 94.7205C94.3 91.6805 99.53 89.0905 104.92 87.0005L104.9 86.9904ZM207.91 66.7004C207.57 66.9004 207.21 67.0805 206.78 67.2104C195.67 70.3405 184.45 73.1705 173 74.6805C167.29 75.4404 161.52 75.8604 155.76 75.8404C152.11 75.8304 148.3 75.3504 145.45 73.0304C166.27 70.9204 187.09 68.8104 207.91 66.7004Z" fill="#567749"/>
<path d="M98.3201 189.789C114.3 174.669 131.21 160.529 148.89 147.439C183.78 121.599 221.74 100.099 261.72 83.1994C261.79 83.0294 261.86 82.8594 261.93 82.6894C260.87 81.9594 259.47 81.7594 258.03 82.6494C256.01 83.8994 254.09 85.2294 252.21 86.5994C246 88.5494 239.73 90.2194 233.41 91.7294C214.68 102.599 195.74 113.079 176.28 122.609C175.74 122.879 175.19 123.149 174.65 123.409C167.08 127.679 159.24 131.419 151.03 134.349C150.2 134.679 149.36 134.999 148.52 135.309C148.39 135.359 148.26 135.409 148.12 135.459C147.37 135.739 146.62 135.999 145.86 136.259C145.62 136.339 145.39 136.419 145.15 136.499C144.47 136.729 143.79 136.949 143.11 137.159C142.78 137.259 142.46 137.359 142.13 137.459C141.52 137.649 140.9 137.829 140.29 137.999C139.88 138.109 139.48 138.219 139.07 138.329C138.52 138.479 137.96 138.619 137.41 138.759C136.92 138.879 136.43 138.989 135.94 139.099C135.45 139.209 134.97 139.319 134.48 139.419C133.87 139.549 133.26 139.649 132.64 139.759C132.26 139.829 131.88 139.899 131.5 139.969C130.5 140.129 129.49 140.279 128.48 140.399C127.89 140.469 127.3 140.519 126.71 140.569C126.57 140.579 126.44 140.589 126.3 140.599C125.83 140.629 125.36 140.659 124.9 140.679C124.78 140.679 124.66 140.679 124.54 140.689C124.03 140.709 123.53 140.709 123.03 140.709C122.96 140.709 122.89 140.709 122.82 140.709C122.24 140.709 121.67 140.689 121.09 140.659C114.79 141.029 108.46 140.769 102.18 139.789C96.0301 138.829 89.9901 137.299 83.9601 135.779C77.7901 140.129 72.0001 145.009 66.7401 150.509C51.4901 166.439 41.4601 186.329 32.8401 206.409C23.0701 229.169 14.6801 252.659 1.3501 273.669C21.0101 265.089 37.6401 251.109 52.8601 236.069C68.2401 220.859 82.5801 204.659 98.3001 189.789H98.3201ZM93.4601 169.139C88.3201 176.049 83.0601 182.879 77.6701 189.599C72.6401 195.869 67.2701 203.179 60.7201 208.549C60.6801 208.519 60.6401 208.489 60.6001 208.449C67.0501 198.119 74.3801 188.399 82.5301 179.399C86.1301 175.929 89.7801 172.519 93.4601 169.139ZM63.0301 180.269C64.0101 180.269 65.0301 179.919 66.0201 179.089C68.9801 176.599 72.0801 174.319 75.2901 172.259C75.2401 172.319 75.1901 172.369 75.1401 172.429C68.9301 178.419 62.8601 184.549 56.9001 190.779C58.7101 187.139 60.7601 183.619 63.0301 180.259V180.269Z" fill="#567749"/>
<path d="M121.11 140.669C121.68 140.699 122.26 140.709 122.84 140.719C122.91 140.719 122.98 140.719 123.05 140.719C123.55 140.719 124.06 140.719 124.56 140.699C124.68 140.699 124.8 140.699 124.92 140.689C125.39 140.669 125.85 140.649 126.32 140.609C126.46 140.609 126.59 140.589 126.73 140.579C127.32 140.529 127.91 140.479 128.5 140.409C129.51 140.289 130.52 140.149 131.52 139.979C131.9 139.919 132.28 139.839 132.66 139.769C133.27 139.659 133.89 139.549 134.5 139.429C134.99 139.329 135.47 139.219 135.96 139.109C136.45 138.999 136.94 138.889 137.43 138.769C137.99 138.629 138.54 138.489 139.09 138.339C139.5 138.229 139.91 138.119 140.31 138.009C140.93 137.839 141.54 137.649 142.15 137.469C142.48 137.369 142.8 137.269 143.13 137.169C143.81 136.959 144.49 136.729 145.17 136.509C145.41 136.429 145.64 136.349 145.88 136.269C146.63 136.009 147.39 135.739 148.14 135.469C148.27 135.419 148.4 135.369 148.54 135.319C149.38 135.009 150.22 134.689 151.05 134.359C159.26 131.439 167.09 127.689 174.67 123.419C175.21 123.149 175.76 122.879 176.3 122.619C195.75 113.089 214.7 102.609 233.43 91.7392C244.58 85.2692 255.65 78.6692 266.69 72.0392C267.3 70.7292 267.94 69.4292 268.57 68.1292C268.97 67.2992 269.36 66.4692 269.76 65.6492C259.28 64.7492 249.25 68.3992 239.58 72.7392C236.02 74.3392 232.51 76.0292 229.04 77.6292C215.91 83.6992 202.2 87.7992 187.77 89.2192C171.98 90.7692 156.55 88.1892 140.92 86.2892C137.83 85.9092 134.7 85.5892 131.56 85.3592C127.74 85.0792 123.91 84.9492 120.1 85.0592C114.96 85.1992 109.85 85.7692 104.89 86.9892C99.4899 89.0792 94.2699 91.6692 89.2399 94.7092C78.2399 101.359 68.3399 109.639 58.7699 118.199C56.0599 121.799 53.5199 125.529 51.2599 129.409C51.2399 129.449 51.2199 129.479 51.1899 129.519C51.8699 130.589 53.0099 131.349 54.3899 131.209C55.1399 131.139 55.8899 131.079 56.6399 131.019C57.2599 131.039 57.8699 131.089 58.4799 131.119C67.1599 131.609 75.5599 133.669 83.9699 135.779C89.9999 137.299 96.0399 138.819 102.19 139.789C108.47 140.779 114.8 141.029 121.1 140.659L121.11 140.669Z" fill="#95B486"/>
<path d="M578.1 300.721C550.93 240.331 495.23 200.251 434.09 178.741C383.84 161.061 328.22 153.811 274.68 159.541C262.68 160.831 250.78 162.761 239.07 165.381C236.81 165.891 234.55 166.411 232.3 166.971C219.36 170.181 206.63 174.391 194.31 179.541C189.07 187.281 183.39 194.721 176.93 201.661C163.15 216.441 146.97 229.001 129.63 239.311C117.9 246.281 105.67 252.201 93.09 257.261C56.13 299.781 34.05 353.411 31.07 410.051C27.73 473.471 49.07 535.981 92.64 582.471C136.9 629.701 198.67 658.361 261.39 671.401C321.62 683.921 387.23 683.071 444.68 659.291C473.76 647.251 499.99 629.311 520.98 605.771C545.2 578.601 562.42 545.861 575.49 512.091C601.54 444.771 608.32 367.901 578.1 300.731V300.721ZM64.26 404.651C64.26 404.651 64.28 404.601 64.29 404.581C64.91 403.141 67.28 402.831 68.29 404.001C69.62 405.541 70.39 407.361 70.61 409.211C71.21 410.001 71.09 411.061 70.54 411.901C70.26 413.511 69.54 415.071 68.39 416.441C67.17 417.881 64.56 417.181 64.12 415.391C63.5 412.861 62.88 410.331 62.26 407.801C61.85 406.141 62.99 404.961 64.28 404.661L64.26 404.651ZM69.24 467.051C66.53 464.481 64.33 461.441 62.8 458.041C62.23 456.781 62.37 455.331 63.66 454.541C64.54 454.011 65.93 454.091 66.72 454.821C67.65 454.491 68.74 454.581 69.41 455.321C71.91 458.081 73.35 461.421 73.57 465.151C73.7 467.411 70.82 468.531 69.25 467.051H69.24ZM75.1 376.751C74.58 378.781 71.49 379.491 70.45 377.461C69.09 374.821 68.68 372.081 69.18 369.161C69.3 368.441 69.81 367.881 70.44 367.551C71.63 365.941 74.29 366.391 74.9 368.341C75.75 371.091 75.82 373.971 75.1 376.751ZM85.23 397.951C83.93 399.701 81.37 399.641 80.57 397.431C79.75 395.191 78.94 392.941 78.12 390.701C77.49 388.971 78.75 387.761 80.18 387.571C80.22 387.501 80.25 387.421 80.29 387.361C81.06 385.971 83.15 385.581 84.29 386.781C85.16 387.691 85.82 388.781 86.24 389.951C86.78 390.731 86.9 391.521 86.76 392.251C86.95 394.241 86.48 396.281 85.23 397.961V397.951ZM89.42 378.741C88.66 380.441 85.84 380.451 85.02 378.811C82.89 374.561 81.87 369.971 82.25 365.211C82.51 361.971 87.6 361.811 87.34 365.071C87.3 365.541 87.28 366.011 87.27 366.481C87.86 366.651 88.41 367.001 88.75 367.541C90.95 371.011 91.07 375.031 89.42 378.741ZM194.35 205.711C195.2 204.581 196.36 204.601 197.24 205.211C198.49 203.331 202.11 203.911 201.93 206.491C201.75 209.141 201.15 211.641 200.15 213.961C200.22 214.851 200.42 215.751 200.72 216.641C197.9 217.591 195.12 218.641 192.38 219.771C192.2 219.541 192.05 219.291 191.95 219.001C190.43 214.301 191.44 209.611 194.35 205.711ZM172.64 249.431C182.58 238.631 194.66 230.021 208.45 224.891C209.42 224.531 210.16 223.991 210.71 223.341C220.12 220.071 229.84 217.681 239.72 216.231C239.95 216.201 240.17 216.191 240.38 216.191C220.06 222.871 201.1 233.411 184.65 246.981C175.16 252.951 166.4 260.031 158.66 268.051C162.6 261.541 167.22 255.321 172.64 249.441V249.431ZM247.18 227.831C247.77 229.721 247.24 231.851 244.86 233.151C233.16 239.571 221.67 246.401 210.65 253.931C209.8 254.581 208.98 255.261 208.14 255.931C211.24 253.041 214.43 250.241 217.73 247.551C226.9 240.071 236.79 233.511 247.17 227.831H247.18ZM136 454.721C137.69 456.401 139.54 457.921 141.53 459.231C144.23 464.271 146.99 469.271 149.84 474.221C160.5 496.551 174.07 517.451 190.75 535.351C198.65 545.601 206.91 555.581 215.53 565.251C215.53 565.721 215.64 566.191 215.86 566.601C181.51 535.171 150.19 498.681 136 454.711V454.721ZM147.44 502.801C140.27 490.151 134.29 476.811 129.65 462.971C129.49 462.011 129.31 461.051 129.17 460.081C133.77 474.911 139.92 489.231 147.44 502.801ZM139.75 358.191C139.6 358.961 139.45 359.741 139.31 360.511C138.89 351.701 138.89 342.891 139.46 334.181C146.36 309.631 158.99 286.971 176.52 268.391C177.07 267.881 177.63 267.381 178.18 266.871C177.77 267.221 177.37 267.571 176.96 267.921C177.63 267.211 178.29 266.501 178.98 265.811C187.76 256.921 197.54 249.151 208.06 242.561C173.41 272.101 148.8 312.881 139.75 358.171V358.191ZM168.21 262.471C161.25 269.941 154.96 278.041 149.47 286.681C150.88 283.081 152.47 279.541 154.22 276.061C158.62 271.321 163.3 266.791 168.2 262.471H168.21ZM133.74 283.331C137.52 277.291 141.78 271.531 146.51 266.131C148.02 264.411 149.56 262.721 151.15 261.081C149.3 264.021 147.56 267.041 145.95 270.131C135.68 289.851 130.64 311.521 129.12 333.511C127.59 339.221 126.35 345.011 125.41 350.851C124.72 328.131 127.5 305.301 133.74 283.341V283.331ZM123.93 422.771C124 423.381 124.1 423.971 124.17 424.581C122.9 424.511 121.63 425.321 121.63 427.091C121.63 427.311 121.63 427.531 121.63 427.751C121.3 426.591 120.97 425.421 120.66 424.261C119.26 419.051 125.61 416.181 128.86 418.841C128.61 419.451 128.37 420.071 128.15 420.701C126.71 419.411 123.68 420.641 123.93 422.781V422.771ZM123.88 407.091C122.3 403.471 120.89 399.781 119.66 396.041C119.51 394.361 119.37 392.701 119.22 391.081C119.01 388.841 118.84 386.601 118.68 384.351C120.03 392.011 121.77 399.601 123.88 407.091ZM121.77 435.081C121.94 439.961 122.26 444.831 122.76 449.681C121.65 450.111 120.79 451.211 121.17 452.691C122.39 457.461 123.75 462.181 125.23 466.861C127.8 480.721 131.71 494.311 136.86 507.421C126.12 486.571 119.52 463.581 118.08 439.991C117.92 437.321 119.67 435.611 121.77 435.081ZM109.75 449.171C110.2 452.021 110.76 454.811 111.41 457.561C112.49 465.441 113.94 473.271 115.78 481.011C113.32 476.021 110.94 470.991 108.65 465.921C106.69 458.861 105.09 451.681 103.86 444.441C106.41 444.251 109.24 445.881 109.76 449.171H109.75ZM101 492.231C101.96 494.701 102.97 497.161 104.05 499.581C103.25 498.191 102.46 496.791 101.69 495.381C101.08 494.271 100.89 493.201 101 492.231ZM112.94 545.701C112.73 547.391 110.53 548.031 109.22 547.311C106.43 545.801 104.5 543.421 103.48 540.431C102.91 538.741 104.08 537.561 105.45 537.311C105.35 537.161 105.26 537.001 105.18 536.821C104.85 536.041 104.51 535.261 104.18 534.471C103.15 532.061 106.71 530.211 108.4 531.921C112.07 535.631 113.59 540.551 112.94 545.691V545.701ZM107.17 506.251C108.76 509.481 110.46 512.651 112.24 515.771C110.76 516.381 108.92 516.071 107.63 514.931C106.26 513.721 105.98 512.031 106.11 510.341C105.03 508.981 105.36 506.811 107.16 506.251H107.17ZM104.36 483.711C102.27 475.621 100.82 467.351 100.09 458.991C101.34 461.921 102.6 464.851 103.91 467.751C107.09 479.081 111.16 490.141 116.08 500.811C112.05 495.121 108.16 489.401 104.35 483.701L104.36 483.711ZM139.85 544.661C131.28 535.541 123.76 525.471 117.45 514.681C124.77 525.051 132.47 535.131 140.59 544.871C140.7 545.061 140.81 545.241 140.91 545.421C140.56 545.161 140.21 544.911 139.86 544.651L139.85 544.661ZM127.78 503.811C125.79 498.131 124.02 492.371 122.45 486.561C126.75 494.611 131.88 502.191 137.64 509.341C141.78 519.601 146.68 529.551 152.29 539.101C149.77 536.811 147.32 534.471 144.91 532.091C138.88 522.861 133.16 513.431 127.77 503.811H127.78ZM157.97 551.101C153.52 544.941 149.22 538.681 145.07 532.321C147.84 535.311 150.66 538.261 153.51 541.181C156.62 546.351 159.94 551.391 163.46 556.291C161.61 554.591 159.78 552.861 157.97 551.101ZM144.58 512.821C150.76 524.401 157.76 535.531 165.54 546.101C164.87 547.271 164.97 549.001 166.35 549.771C167.46 550.381 168.57 550.981 169.68 551.591C171.05 553.361 172.45 555.101 173.86 556.831C171.09 554.751 168.35 552.631 165.65 550.471C157.42 538.651 150.34 526.041 144.57 512.821H144.58ZM169.22 542.471C170.55 544.011 171.9 545.541 173.26 547.041C172.96 546.921 172.67 546.811 172.37 546.691C171.3 545.291 170.25 543.881 169.21 542.461L169.22 542.471ZM186.54 585.131C181.03 582.471 175.73 579.451 170.62 576.151C170.16 575.711 169.71 575.271 169.26 574.821C170.56 574.711 171.61 573.401 171.58 572.061C174.64 573.931 177.73 575.751 180.84 577.551C183.44 580.351 186.13 583.061 188.88 585.711C188.14 585.701 187.35 585.521 186.53 585.131H186.54ZM190.45 577.141C187.82 575.471 185.23 573.731 182.68 571.911C182.63 571.861 182.59 571.811 182.54 571.751C183.75 572.111 184.97 572.441 186.18 572.781C187.81 573.861 189.45 574.931 191.11 575.971C191.92 576.791 192.73 577.621 193.55 578.431C193.63 578.601 193.71 578.781 193.77 578.951C192.66 578.351 191.55 577.741 190.44 577.131L190.45 577.141ZM191.75 569.351C188.11 565.551 184.59 561.641 181.19 557.631C182.81 558.451 184.42 559.271 186.05 560.071C190.14 563.921 194.37 567.621 198.73 571.181C196.39 570.581 194.06 569.971 191.75 569.351ZM198.05 558.061C178.66 540.741 162.33 520.001 150.04 497.051C163.77 519.951 181.63 540.641 201.07 559.571C200.07 559.061 199.06 558.551 198.05 558.051V558.061ZM214.13 583.631C209.83 581.551 205.65 579.271 201.57 576.831C203.77 577.381 205.96 577.931 208.16 578.471C209.87 579.721 211.58 580.951 213.33 582.161C214.94 583.271 216.46 582.131 216.86 580.641C217.89 580.901 218.92 581.161 219.95 581.431C220.2 581.591 220.45 581.751 220.7 581.911C219.4 583.841 216.89 584.971 214.12 583.631H214.13ZM216.24 558.301C218.67 560.131 221.16 561.891 223.69 563.591C222.62 563.401 221.53 563.231 220.45 563.091C219.03 561.511 217.64 559.901 216.24 558.301ZM219.55 569.681C219.44 569.631 219.32 569.591 219.21 569.541C219.13 569.491 219.05 569.441 218.96 569.391C218.43 568.911 217.89 568.431 217.36 567.951C217.84 568.251 218.32 568.551 218.8 568.851C219.05 569.131 219.3 569.401 219.55 569.681ZM230.55 610.201C230.4 611.491 228.66 612.461 227.47 612.061C223.32 610.661 219.91 608.031 217.67 604.241C216 601.411 220.36 598.781 222.03 601.601C222.29 602.041 222.58 602.461 222.89 602.871C223.39 601.481 225.12 600.231 226.6 601.271C229.64 603.421 230.98 606.511 230.56 610.201H230.55ZM245.95 579.641C245.71 579.561 245.47 579.481 245.22 579.391C240.52 576.441 235.82 573.501 231.11 570.551C236.22 572.171 241.07 574.451 245.59 577.291C245.93 578.031 246.03 578.831 245.94 579.631L245.95 579.641ZM285.31 167.521C284.26 167.491 283.21 167.481 282.16 167.471C282.55 168.931 281.82 170.691 279.88 170.681C279.77 170.681 279.67 170.681 279.56 170.681C279.44 171.821 278.66 172.911 277.2 173.021C260.31 174.301 243.15 176.321 228.12 184.721C226 185.911 224.03 183.861 224.3 182.041C222.88 182.811 221.48 183.611 220.09 184.451C217.28 186.141 214.64 181.781 217.45 180.091C237.86 167.821 261.35 161.661 285.16 162.431C288.43 162.541 288.57 167.631 285.3 167.521H285.31ZM296.1 168.301C295.6 168.811 295.02 168.981 294.34 169.071C293.43 169.201 292.53 169.321 291.62 169.451C290.21 169.651 289.09 168.221 289 166.971C288.95 166.331 289.28 165.581 289.72 165.131C290.22 164.621 290.8 164.451 291.48 164.361C292.39 164.231 293.29 164.111 294.2 163.981C295.61 163.781 296.73 165.211 296.82 166.461C296.87 167.101 296.54 167.851 296.1 168.301ZM535.94 425.381C536.07 425.521 536.2 425.671 536.3 425.851C538.13 429.301 537.66 433.441 534.92 436.291C533.64 437.611 531.1 437.121 530.65 435.241C529.88 432.061 529.93 428.801 530.98 425.691C531.82 423.181 535.26 423.501 535.95 425.391L535.94 425.381ZM533.99 520.391C533.34 521.001 532.69 521.621 532.03 522.231C531.47 522.541 530.92 522.851 530.36 523.171C531 522.511 531.66 521.881 532.34 521.261C532.89 520.981 533.44 520.681 533.99 520.391ZM519.74 373.741C519.74 373.741 519.76 373.721 519.77 373.711C521.47 372.451 523.4 374.121 523.63 375.821C523.75 376.691 523.76 377.551 523.67 378.391C523.86 378.301 524.04 378.181 524.2 378.011C524.75 377.421 524.88 376.661 524.81 375.891C524.57 375.041 524.32 374.191 524.08 373.341C523.15 370.111 527.74 368.941 528.96 371.901C529.23 372.551 529.42 373.241 529.55 373.951C529.87 375.061 530.18 376.161 530.5 377.271C530.97 378.891 529.9 380.051 528.64 380.381C527.49 382.521 525.43 383.981 522.38 383.671C522.14 383.651 521.92 383.601 521.7 383.551C521.36 384.031 521 384.501 520.58 384.941C518.94 386.661 516.5 385.291 516.21 383.241C515.81 380.451 515.4 377.651 514.99 374.861C514.57 371.981 518.52 371.591 519.75 373.761L519.74 373.741ZM519.05 531.811C519.24 532.361 519.62 532.841 520.12 533.161C517.9 535.151 515.66 537.121 513.4 539.071C515.34 536.691 517.22 534.271 519.05 531.811ZM494.85 329.211C495.05 328.301 495.59 327.751 496.25 327.501C496.37 327.261 496.48 327.021 496.62 326.791C497.41 325.541 499.5 324.861 500.62 326.211C503.59 329.781 503.66 334.591 500.74 338.221C499.95 339.201 497.95 339.281 497.14 338.271C495.01 335.641 494.14 332.551 494.86 329.211H494.85ZM489.54 513.391C489.71 512.981 489.95 512.691 490.21 512.471C490.61 511.841 491.07 511.251 491.59 510.701C492.84 509.391 495.45 509.851 495.86 511.751C496.78 516.001 495.62 520.341 492.39 523.341C490.77 524.841 488.16 523.881 488.02 521.641C487.83 518.751 488.4 516.051 489.53 513.391H489.54ZM476.94 253.331C477.02 253.091 477.11 252.851 477.22 252.611C478.08 250.771 480.62 251.071 481.62 252.541C483.92 255.921 484.62 260.041 483.69 264.001C483.19 266.141 480.15 266.611 479.04 264.711C477.37 261.841 476.38 258.781 475.95 255.491C475.81 254.431 476.26 253.711 476.94 253.331ZM439.89 300.271C438.62 298.491 437.31 296.731 435.97 295.001C437.31 296.731 438.62 298.491 439.89 300.271ZM414.14 213.641C415.07 212.731 416.57 212.441 417.58 213.621C420.12 216.581 421.61 219.931 422.14 223.791C422.43 225.911 419.92 226.781 418.35 226.081C414.21 224.241 411.13 220.561 409.92 216.211C409.17 213.531 412.55 212.111 414.14 213.631V213.641ZM461.53 563.061C462.37 561.741 463.23 560.431 464.05 559.101C466.46 558.041 468.88 556.971 471.29 555.911C468 558.251 464.75 560.641 461.52 563.061H461.53ZM470.72 562.591C463.37 569.341 455.87 575.921 448.14 582.191C448.12 582.191 448.09 582.211 448.07 582.221C449.42 580.461 450.76 578.681 452.07 576.891C458.17 571.971 464.38 567.201 470.73 562.601L470.72 562.591ZM468.87 401.901C468.99 400.451 469.07 398.991 469.15 397.531C469.07 398.991 468.99 400.451 468.87 401.901ZM469.45 549.941C470.14 548.721 470.84 547.501 471.52 546.271C473.72 545.331 475.93 544.411 478.15 543.511C478.4 543.621 478.65 543.751 478.89 543.891C475.8 545.991 472.66 548.011 469.46 549.931L469.45 549.941ZM442.62 593.001C439.88 595.791 437.15 598.581 434.41 601.371C434.32 600.501 434.42 599.611 434.73 598.801C437.39 596.911 440.02 594.971 442.62 593.001ZM422.01 614.011C417.02 619.091 412.03 624.181 407.05 629.261C405.52 629.871 403.99 630.471 402.45 631.061C396.99 633.131 391.45 634.991 385.87 636.671C398.17 629.501 410.22 621.951 422.02 614.011H422.01ZM361.14 623.861C362.24 624.931 362.2 627.181 360.69 627.891C357.06 629.581 344.64 633.411 344.18 625.991C344.1 624.671 344.52 623.591 345.28 622.691C344.55 622.541 343.87 622.311 343.3 621.931C342.69 621.531 342.22 621.011 341.88 620.431C332.92 619.961 324 618.511 315.25 616.071C312.09 615.191 313.31 610.241 316.47 611.131C325.08 613.541 333.85 614.951 342.66 615.381C344.18 614.061 346.69 614.171 348.54 613.951C351.75 613.571 354.95 613.201 358.16 612.821C364.11 612.121 370.54 610.491 376.37 612.421C378.58 613.151 379.13 616.721 376.48 617.331C371.92 618.391 367.33 619.191 362.73 619.731C363.95 621.221 363.47 623.901 361.14 623.871V623.861ZM369.99 646.101C379.71 643.881 389.29 641.111 398.69 637.791C397.88 638.621 397.07 639.451 396.25 640.271C392.22 641.861 388.16 643.351 384.06 644.741C379.04 646.261 374.06 647.711 369.14 649.121C369.02 648.081 369.26 647.011 369.99 646.091V646.101ZM402.01 648.351C393.32 650.611 384.53 652.481 375.74 653.971C374.66 654.151 373.63 654.001 372.71 653.621C376.3 652.591 379.86 651.481 383.4 650.311C386.36 649.431 389.33 648.541 392.3 647.621C393.04 648.511 394.29 648.951 395.51 648.191C397.15 647.171 398.77 646.111 400.4 645.071C405.78 643.341 411.15 641.531 416.48 639.631C411.7 642.621 406.87 645.511 402.02 648.351H402.01ZM454.85 587.811C469.74 581.801 483.56 573.281 496.58 563.461C475.73 583.271 453.59 601.681 430.3 618.571C426.72 620.431 423.09 622.221 419.42 623.911C431.23 611.871 443.03 599.841 454.84 587.801L454.85 587.811ZM467.45 621.381C453.02 630.091 437.48 637.091 421.36 642.551C427.58 638.631 433.73 634.591 439.79 630.411C460.42 621.381 479.85 610.161 496.52 595.211C487.84 604.971 478.06 613.751 467.45 621.381ZM465.18 611.611C487.16 594.091 507.31 574.431 524.24 552.181C511.25 578.111 490.01 597.071 465.18 611.611ZM525.8 565.571C521.58 572.191 516.93 578.391 511.93 584.211C514.67 580.401 517.27 576.491 519.7 572.471C525.79 562.431 530.77 551.771 534.66 540.701C534.69 540.681 534.72 540.661 534.75 540.641C538.02 537.791 540.48 534.381 542.11 530.591C538.26 542.901 532.74 554.681 525.79 565.561L525.8 565.571ZM544.13 523.481C544.22 522.891 544.3 522.291 544.35 521.691C544.49 521.451 544.62 521.211 544.75 520.971C544.55 521.811 544.34 522.651 544.13 523.481ZM544.94 493.601C543.7 495.201 540.43 494.761 540.32 492.151C540.32 492.001 540.32 491.861 540.32 491.711C539.93 488.761 540.33 485.961 541.6 483.201C542.25 481.801 543.57 481.621 544.65 482.121C545.81 481.851 547.03 482.411 547.64 483.801C549.16 487.261 547.83 491.341 544.94 493.601ZM546.35 330.541C545.33 331.871 543.11 331.351 542.34 330.081C540.78 327.491 539.94 324.601 539.9 321.571C539.87 319.601 541.69 318.781 543.16 319.131C544.17 317.921 546.48 318.241 547.24 319.591C549.27 323.201 548.82 327.301 546.34 330.541H546.35ZM577.5 432.741L577.44 430.231C576.76 429.441 576.7 428.331 577.12 427.311C577.2 427.121 577.27 426.931 577.35 426.741C577.32 425.491 577.29 424.241 577.25 422.981C577.17 419.691 582.26 419.571 582.34 422.841C582.34 423.221 582.36 423.591 582.37 423.971C582.65 424.251 582.85 424.591 582.94 424.991C583.51 427.791 583.45 430.551 582.52 433.271C581.62 435.891 577.58 435.741 577.5 432.731V432.741Z" fill="#FF8F26"/>
<path d="M176.93 201.649C183.39 194.719 189.07 187.269 194.31 179.529C201.75 168.539 208.31 156.949 214.94 145.339C225.89 126.149 237.96 106.819 255.78 93.4694C256.47 93.2494 257.16 93.0294 257.85 92.8094C258.06 92.2794 258.25 91.7394 258.46 91.1994C258.64 90.7494 258.82 90.3094 259 89.8594C238.07 98.9194 217.71 109.279 198.08 120.899C159.04 144.019 122.94 172.009 90.89 204.129C63.42 231.659 37.95 264.079 1.19995 279.249C2.19995 280.149 3.65995 280.639 5.01995 280.419C34.9799 275.599 64.91 268.579 93.09 257.239C105.67 252.179 117.9 246.259 129.63 239.289C146.98 228.969 163.16 216.419 176.93 201.639V201.649ZM163.13 167.399C164.83 168.599 165.85 170.809 165.35 172.889C165.94 173.269 166.44 173.789 166.81 174.399C160.84 182.779 154 190.519 146.38 197.489C152.48 187.769 158.07 177.729 163.13 167.399ZM97.34 221.699C97.38 220.639 97.7 219.619 98.36 218.819C102.79 213.439 107.6 208.409 112.7 203.689C116.56 197.739 122.05 192.439 126.63 188.049C129.09 185.699 131.65 183.489 134.31 181.399C122.13 194.949 110.52 209.199 97.34 221.699ZM111.51 224.469C110.08 225.269 108.59 225.909 107.01 226.359C117.49 215.889 127.11 204.279 137.01 193.019L135.74 195.279C129.14 205.509 121.94 215.359 114.19 224.799C113.29 224.869 112.39 224.779 111.51 224.459V224.469Z" fill="#567749"/>
<path d="M90.89 204.141C122.94 172.031 159.05 144.031 198.08 120.911C217.71 109.281 238.07 98.9209 259 89.8709C259.89 87.6409 260.79 85.4209 261.73 83.2109C221.75 100.111 183.79 121.611 148.9 147.451C131.22 160.541 114.31 174.681 98.33 189.801C82.61 204.671 68.27 220.871 52.89 236.081C37.68 251.121 21.04 265.101 1.38005 273.681C1.12005 274.091 0.870047 274.511 0.610047 274.911C-0.479953 276.601 0.0400474 278.211 1.21005 279.271C37.96 264.091 63.43 231.671 90.9 204.151L90.89 204.141Z" fill="#355B29"/>
<path d="M314.6 102.781C314.76 105.471 312.67 107.651 312.61 110.071C312.55 112.481 316.23 113.221 317.98 114.641C322.09 117.961 322.3 123.281 318.66 127.151C317.49 128.391 316.03 129.151 314.7 130.171C314.44 130.371 314.21 130.571 313.99 130.761C321.32 132.001 328.7 132.911 336.13 133.471C342.29 133.931 348.5 134.191 354.68 134.101C358.38 134.051 362.59 133.751 363.79 129.501C366.46 120.041 352.59 117.401 346.24 116.981C344.28 116.851 342.31 116.751 340.34 116.641C349.31 114.151 357.97 110.491 366.11 105.731C369.73 103.611 367.53 99.0009 364.03 98.6409C350.83 97.2809 338.06 100.441 326.14 105.721C323.43 106.621 320.73 107.581 318.07 108.641C321.6 105.851 324.94 102.811 328.03 99.5209C331.87 95.4409 341.76 86.4509 337.67 80.2409C331.55 70.9209 318.54 85.3809 310.27 96.6209C312.65 97.5109 314.42 99.6909 314.6 102.771V102.781Z" fill="#FFFFFD"/>
<path d="M306.96 143.309C309.09 141.449 310.07 138.959 310.95 136.339C311.77 133.889 312.2 132.399 314 130.769C314.22 130.569 314.44 130.379 314.71 130.179C316.04 129.149 317.5 128.399 318.67 127.159C322.31 123.289 322.09 117.969 317.99 114.649C316.24 113.229 312.56 112.489 312.62 110.079C312.68 107.659 314.77 105.479 314.61 102.789C314.43 99.7094 312.66 97.5294 310.28 96.6394C308.6 96.0094 306.61 96.0294 304.67 96.8494C302.05 97.9594 300.03 100.159 297.98 102.059C294.77 105.039 291.6 108.069 288.48 111.149C286.77 112.839 285.09 114.539 283.42 116.259C281.36 123.589 279.59 130.989 278.1 138.459C286.45 144.549 299.1 150.199 306.96 143.319V143.309Z" fill="#567749"/>
<path d="M271.57 62.0495C270.96 63.2395 270.35 64.4395 269.76 65.6395C269.35 66.4595 268.97 67.2995 268.57 68.1195C267.94 69.4195 267.31 70.7195 266.69 72.0295C265.05 75.5595 263.47 79.1195 261.95 82.6995C261.88 82.8695 261.81 83.0395 261.74 83.2095C260.81 85.4195 259.9 87.6395 259.01 89.8695C258.83 90.3195 258.65 90.7595 258.47 91.2095C258.26 91.7395 258.06 92.2795 257.86 92.8195C248.82 116.25 242.56 140.57 239.08 165.39C250.79 162.77 262.69 160.84 274.69 159.55C275.57 152.49 276.72 145.45 278.1 138.47C279.58 131.01 281.36 123.6 283.42 116.27C286.27 106.13 289.66 96.1495 293.6 86.3895C298.87 73.3295 305.09 60.6495 312.17 48.4795C315.56 42.6595 319.14 36.9495 322.92 31.3795C322.93 31.3595 322.95 31.3395 322.96 31.3195C321.71 27.8795 320.64 24.3995 319.61 21.0895C317.42 14.0295 315.05 7.02953 312.73 0.0195312C311.82 0.999531 310.95 2.01953 310.12 3.02953C305.71 8.35953 301.51 13.8695 297.47 19.4795C288.27 32.2295 280.04 45.6595 272.81 59.5995C272.6 59.9995 272.4 60.4095 272.19 60.8195C271.98 61.2395 271.77 61.6595 271.56 62.0695L271.57 62.0495Z" fill="#935029"/>
<path d="M376.47 617.33C379.12 616.71 378.57 613.15 376.36 612.42C370.52 610.49 364.09 612.12 358.15 612.82C354.94 613.2 351.74 613.57 348.53 613.95C346.68 614.17 344.17 614.07 342.65 615.38C333.84 614.95 325.07 613.53 316.46 611.13C313.3 610.25 312.09 615.19 315.24 616.07C323.99 618.51 332.91 619.97 341.87 620.43C342.21 621.01 342.68 621.53 343.29 621.93C343.86 622.31 344.54 622.53 345.27 622.69C344.51 623.58 344.09 624.67 344.17 625.99C344.63 633.42 357.05 629.58 360.68 627.89C362.19 627.19 362.24 624.94 361.13 623.86C363.46 623.89 363.94 621.21 362.72 619.72C367.33 619.17 371.92 618.38 376.47 617.32V617.33Z" fill="#943300"/>
<path d="M226.57 601.279C225.09 600.239 223.36 601.489 222.86 602.879C222.56 602.479 222.26 602.059 222 601.609C220.33 598.779 215.97 601.419 217.64 604.249C219.88 608.039 223.29 610.679 227.44 612.069C228.63 612.469 230.37 611.499 230.52 610.209C230.95 606.519 229.61 603.429 226.56 601.279H226.57Z" fill="#A33600"/>
<path d="M107.62 514.93C108.9 516.06 110.74 516.38 112.23 515.77C110.44 512.65 108.75 509.47 107.16 506.25C105.36 506.81 105.02 508.99 106.11 510.34C105.98 512.03 106.27 513.72 107.63 514.93H107.62Z" fill="#A33600"/>
<path d="M66.72 454.819C65.93 454.089 64.54 454.009 63.66 454.539C62.37 455.319 62.23 456.779 62.8 458.039C64.33 461.439 66.54 464.489 69.24 467.049C70.81 468.529 73.69 467.419 73.56 465.149C73.35 461.429 71.9 458.079 69.4 455.319C68.73 454.589 67.64 454.489 66.71 454.819H66.72Z" fill="#A33600"/>
<path d="M87.27 366.49C87.28 366.02 87.3 365.55 87.34 365.08C87.6 361.82 82.51 361.98 82.25 365.22C81.87 369.98 82.89 374.57 85.02 378.82C85.84 380.46 88.66 380.44 89.42 378.75C91.07 375.04 90.94 371.02 88.75 367.55C88.41 367.01 87.87 366.66 87.27 366.49Z" fill="#A33600"/>
<path d="M530.62 435.251C531.07 437.131 533.61 437.631 534.89 436.301C537.63 433.461 538.11 429.321 536.27 425.861C536.17 425.681 536.05 425.531 535.91 425.391C535.22 423.511 531.79 423.181 530.94 425.691C529.89 428.801 529.84 432.061 530.61 435.241L530.62 435.251Z" fill="#A33600"/>
<path d="M492.38 523.35C495.6 520.35 496.77 516.01 495.85 511.76C495.44 509.86 492.83 509.4 491.58 510.71C491.06 511.26 490.6 511.85 490.2 512.48C489.93 512.7 489.7 513 489.53 513.4C488.39 516.05 487.83 518.75 488.02 521.65C488.17 523.89 490.78 524.85 492.39 523.35H492.38Z" fill="#A33600"/>
<path d="M544.64 482.15C543.56 481.65 542.24 481.83 541.59 483.23C540.32 485.99 539.91 488.79 540.31 491.74C540.31 491.89 540.31 492.03 540.31 492.18C540.42 494.79 543.68 495.23 544.93 493.63C547.82 491.38 549.15 487.29 547.63 483.83C547.02 482.45 545.8 481.88 544.64 482.15Z" fill="#A33600"/>
<path d="M483.67 264.01C484.59 260.05 483.9 255.92 481.6 252.55C480.6 251.09 478.05 250.78 477.2 252.62C477.09 252.86 477 253.1 476.92 253.34C476.24 253.73 475.79 254.44 475.93 255.5C476.36 258.79 477.35 261.85 479.02 264.72C480.13 266.62 483.17 266.15 483.67 264.01Z" fill="#A33600"/>
<path d="M500.71 338.23C503.64 334.6 503.56 329.79 500.59 326.22C499.47 324.88 497.39 325.55 496.59 326.8C496.45 327.03 496.34 327.27 496.22 327.51C495.56 327.76 495.02 328.31 494.82 329.22C494.1 332.57 494.97 335.65 497.1 338.28C497.91 339.28 499.91 339.2 500.7 338.23H500.71Z" fill="#A33600"/>
<path d="M543.15 319.16C541.68 318.81 539.87 319.64 539.89 321.6C539.93 324.62 540.77 327.52 542.33 330.11C543.09 331.38 545.32 331.9 546.34 330.57C548.81 327.33 549.27 323.23 547.24 319.62C546.48 318.27 544.17 317.95 543.16 319.16H543.15Z" fill="#A33600"/>
<path d="M285.15 162.439C261.34 161.669 237.85 167.829 217.44 180.099C214.63 181.789 217.26 186.149 220.08 184.459C221.47 183.629 222.87 182.829 224.29 182.049C224.02 183.869 225.99 185.919 228.11 184.729C243.14 176.329 260.3 174.319 277.19 173.029C278.65 172.919 279.43 171.829 279.55 170.689C279.66 170.689 279.76 170.689 279.87 170.689C281.81 170.709 282.54 168.939 282.15 167.479C283.2 167.479 284.25 167.489 285.3 167.529C288.57 167.639 288.43 162.539 285.16 162.439H285.15Z" fill="#A33600"/>
<path d="M294.18 163.99C293.27 164.12 292.37 164.24 291.46 164.37C290.78 164.47 290.2 164.63 289.7 165.14C289.26 165.59 288.94 166.34 288.98 166.98C289.07 168.23 290.18 169.65 291.6 169.46C292.51 169.33 293.41 169.21 294.32 169.08C295 168.98 295.58 168.82 296.08 168.31C296.52 167.86 296.84 167.11 296.8 166.47C296.71 165.22 295.6 163.8 294.18 163.99Z" fill="#A33600"/>
<path d="M70.44 367.55C69.81 367.88 69.3 368.44 69.18 369.16C68.67 372.08 69.09 374.83 70.45 377.46C71.49 379.49 74.58 378.78 75.1 376.75C75.82 373.97 75.75 371.09 74.9 368.34C74.3 366.39 71.63 365.94 70.44 367.55Z" fill="#A33600"/>
<path d="M582.92 425.019C582.84 424.609 582.63 424.269 582.35 423.999C582.35 423.619 582.33 423.249 582.32 422.869C582.24 419.599 577.14 419.719 577.23 423.009C577.26 424.259 577.29 425.509 577.33 426.769C577.25 426.959 577.18 427.149 577.1 427.339C576.68 428.359 576.74 429.469 577.42 430.259L577.48 432.769C577.56 435.779 581.6 435.929 582.5 433.309C583.44 430.589 583.49 427.829 582.92 425.029V425.019Z" fill="#A33600"/>
<path d="M86.2399 389.94C85.8099 388.77 85.1599 387.68 84.2899 386.77C83.1499 385.57 81.0599 385.96 80.2899 387.35C80.2499 387.42 80.2199 387.49 80.1799 387.56C78.7499 387.74 77.4899 388.95 78.1199 390.69C78.9399 392.93 79.7499 395.18 80.5699 397.42C81.3799 399.64 83.9399 399.69 85.2299 397.94C86.4799 396.26 86.9499 394.22 86.7599 392.23C86.8999 391.5 86.7799 390.71 86.2399 389.93V389.94Z" fill="#FFAF53"/>
<path d="M68.38 416.429C69.53 415.059 70.25 413.499 70.53 411.889C71.08 411.059 71.21 409.999 70.6 409.199C70.38 407.349 69.61 405.529 68.28 403.989C67.28 402.819 64.9 403.139 64.28 404.569C64.28 404.589 64.26 404.619 64.25 404.639C62.96 404.939 61.83 406.119 62.23 407.779C62.85 410.309 63.47 412.839 64.09 415.369C64.53 417.159 67.14 417.859 68.36 416.419L68.38 416.429Z" fill="#FFAF53"/>
<path d="M104.17 534.469C104.5 535.249 104.84 536.029 105.17 536.819C105.25 536.999 105.34 537.159 105.44 537.309C104.08 537.549 102.9 538.739 103.47 540.429C104.49 543.419 106.42 545.799 109.21 547.309C110.52 548.019 112.71 547.389 112.93 545.699C113.58 540.559 112.06 535.639 108.39 531.929C106.7 530.219 103.14 532.069 104.17 534.479V534.469Z" fill="#FFAF53"/>
<path d="M418.32 226.099C419.89 226.799 422.4 225.919 422.11 223.809C421.58 219.949 420.1 216.599 417.55 213.639C416.54 212.459 415.04 212.749 414.11 213.659C412.52 212.129 409.14 213.559 409.89 216.239C411.1 220.589 414.18 224.269 418.32 226.109V226.099Z" fill="#FFAF53"/>
<path d="M516.17 383.231C516.47 385.281 518.9 386.661 520.54 384.931C520.96 384.491 521.32 384.031 521.66 383.541C521.88 383.591 522.11 383.641 522.34 383.661C525.38 383.971 527.45 382.511 528.6 380.371C529.87 380.041 530.93 378.881 530.46 377.261C530.14 376.151 529.83 375.051 529.51 373.941C529.38 373.231 529.19 372.541 528.92 371.891C527.69 368.931 523.11 370.111 524.04 373.331C524.28 374.181 524.53 375.031 524.77 375.881C524.84 376.661 524.71 377.411 524.16 378.001C524 378.171 523.82 378.291 523.63 378.381C523.72 377.541 523.71 376.681 523.59 375.811C523.36 374.111 521.43 372.441 519.73 373.701C519.72 373.701 519.71 373.721 519.7 373.731C518.47 371.561 514.52 371.951 514.94 374.831C515.35 377.621 515.75 380.421 516.16 383.211L516.17 383.231Z" fill="#FFAF53"/>
<path d="M530.34 523.18C530.9 522.87 531.45 522.56 532.01 522.24C532.67 521.63 533.32 521.01 533.97 520.4C533.42 520.69 532.87 520.98 532.32 521.27C531.64 521.88 530.98 522.52 530.34 523.18Z" fill="#FFAF53"/>
<path d="M434.39 601.39C437.13 598.6 439.86 595.81 442.6 593.02C440 594.99 437.37 596.93 434.71 598.82C434.4 599.63 434.3 600.51 434.39 601.39Z" fill="#FFAF53"/>
<path d="M496.56 563.49C483.53 573.31 469.71 581.82 454.83 587.84C443.02 599.88 431.22 611.91 419.41 623.95C423.08 622.25 426.71 620.47 430.29 618.61C453.57 601.72 475.72 583.31 496.57 563.5L496.56 563.49Z" fill="#FFAF53"/>
<path d="M519.03 531.82C517.2 534.29 515.32 536.71 513.38 539.08C515.63 537.13 517.88 535.16 520.1 533.17C519.61 532.85 519.23 532.37 519.03 531.82Z" fill="#FFAF53"/>
<path d="M464.03 559.12C463.21 560.45 462.35 561.76 461.51 563.08C464.74 560.66 467.99 558.27 471.28 555.93C468.87 556.99 466.45 558.06 464.04 559.12H464.03Z" fill="#FFAF53"/>
<path d="M478.12 543.539C475.9 544.439 473.69 545.349 471.49 546.299C470.81 547.529 470.12 548.749 469.42 549.969C472.62 548.049 475.76 546.029 478.85 543.929C478.61 543.779 478.37 543.659 478.11 543.549L478.12 543.539Z" fill="#FFAF53"/>
<path d="M421.34 642.58C437.46 637.11 453 630.11 467.43 621.41C478.04 613.79 487.82 605.01 496.5 595.24C479.83 610.19 460.41 621.4 439.77 630.44C433.71 634.62 427.55 638.66 421.34 642.58Z" fill="#FFAF53"/>
<path d="M402.43 631.079C403.97 630.499 405.5 629.899 407.03 629.279C412.02 624.199 417.01 619.109 421.99 614.029C410.19 621.969 398.14 629.529 385.84 636.689C391.43 635.009 396.96 633.139 402.42 631.079H402.43Z" fill="#FFAF53"/>
<path d="M396.23 640.291C397.04 639.461 397.85 638.631 398.67 637.811C389.28 641.131 379.69 643.901 369.97 646.121C369.24 647.041 368.99 648.111 369.12 649.151C374.04 647.741 379.02 646.281 384.04 644.771C388.14 643.381 392.21 641.891 396.23 640.301V640.291Z" fill="#FFAF53"/>
<path d="M534.74 540.671C534.74 540.671 534.68 540.711 534.65 540.731C530.76 551.801 525.78 562.461 519.69 572.501C517.26 576.521 514.66 580.431 511.92 584.241C516.92 578.421 521.56 572.221 525.79 565.601C532.74 554.711 538.26 542.941 542.11 530.631C540.48 534.411 538.02 537.821 534.75 540.681L534.74 540.671Z" fill="#FFAF53"/>
<path d="M465.16 611.641C489.99 597.101 511.23 578.151 524.22 552.211C507.29 574.451 487.14 594.121 465.16 611.641Z" fill="#FFAF53"/>
<path d="M448.04 582.23C448.04 582.23 448.09 582.21 448.11 582.2C455.85 575.93 463.35 569.36 470.69 562.6C464.35 567.2 458.13 571.98 452.03 576.89C450.72 578.68 449.39 580.46 448.03 582.22L448.04 582.23Z" fill="#FFAF53"/>
<path d="M544.11 523.51C544.32 522.67 544.53 521.84 544.73 521C544.59 521.24 544.46 521.48 544.33 521.72C544.28 522.32 544.2 522.92 544.11 523.51Z" fill="#FFAF53"/>
<path d="M395.49 648.21C394.28 648.97 393.02 648.52 392.28 647.64C389.31 648.55 386.35 649.45 383.38 650.33C379.84 651.51 376.28 652.61 372.69 653.64C373.61 654.02 374.64 654.17 375.72 653.99C384.52 652.51 393.3 650.64 401.99 648.37C406.84 645.53 411.66 642.64 416.45 639.65C411.12 641.56 405.76 643.36 400.37 645.09C398.74 646.13 397.12 647.18 395.48 648.21H395.49Z" fill="#FFAF53"/>
<path d="M192.38 219.77C195.12 218.64 197.9 217.59 200.72 216.64C200.42 215.75 200.23 214.85 200.15 213.96C201.15 211.63 201.75 209.14 201.93 206.49C202.11 203.91 198.49 203.33 197.24 205.21C196.35 204.61 195.19 204.58 194.35 205.71C191.43 209.62 190.43 214.3 191.95 219C192.04 219.29 192.2 219.54 192.38 219.77Z" fill="#FFAF53"/>
<path d="M129.12 333.5C130.63 311.5 135.67 289.84 145.95 270.12C147.56 267.03 149.3 264.01 151.15 261.07C149.57 262.71 148.02 264.4 146.51 266.12C141.78 271.53 137.52 277.29 133.74 283.32C127.5 305.29 124.72 328.11 125.41 350.83C126.35 344.99 127.59 339.21 129.12 333.49V333.5Z" fill="#FFAF53"/>
<path d="M168.21 262.461C163.31 266.791 158.63 271.311 154.23 276.051C152.48 279.531 150.89 283.071 149.48 286.671C154.97 278.031 161.26 269.931 168.22 262.461H168.21Z" fill="#FFAF53"/>
<path d="M208.06 242.57C197.55 249.15 187.76 256.93 178.98 265.82C178.29 266.51 177.63 267.23 176.96 267.93C177.37 267.58 177.77 267.22 178.18 266.88C177.62 267.38 177.07 267.89 176.52 268.4C158.99 286.99 146.36 309.65 139.46 334.19C138.9 342.9 138.89 351.71 139.31 360.52C139.46 359.74 139.6 358.97 139.75 358.2C148.79 312.9 173.41 272.13 208.06 242.59V242.57Z" fill="#FFAF53"/>
<path d="M184.66 246.97C201.11 233.4 220.07 222.87 240.39 216.18C240.17 216.18 239.96 216.18 239.73 216.22C229.86 217.68 220.13 220.07 210.72 223.33C210.17 223.98 209.43 224.52 208.46 224.88C194.67 230.01 182.59 238.62 172.65 249.42C167.24 255.3 162.61 261.53 158.67 268.03C166.41 260.01 175.17 252.93 184.66 246.96V246.97Z" fill="#FFAF53"/>
<path d="M119.65 396.03C120.88 399.78 122.29 403.47 123.87 407.08C121.76 399.59 120.02 391.99 118.67 384.34C118.82 386.58 118.99 388.83 119.21 391.07C119.36 392.69 119.5 394.36 119.65 396.03Z" fill="#FFAF53"/>
<path d="M210.66 253.93C221.68 246.4 233.16 239.57 244.87 233.15C247.25 231.85 247.78 229.72 247.19 227.83C236.81 233.51 226.92 240.06 217.75 247.55C214.45 250.25 211.25 253.05 208.16 255.93C209 255.26 209.82 254.58 210.67 253.93H210.66Z" fill="#FFAF53"/>
<path d="M220.68 581.9C220.43 581.74 220.18 581.58 219.93 581.42C218.9 581.15 217.87 580.89 216.84 580.63C216.44 582.12 214.92 583.26 213.31 582.15C211.57 580.95 209.85 579.71 208.14 578.46C205.94 577.92 203.74 577.37 201.55 576.82C205.63 579.26 209.81 581.54 214.11 583.62C216.88 584.96 219.39 583.83 220.69 581.9H220.68Z" fill="#FFAF53"/>
<path d="M169.67 551.571C168.56 550.971 167.44 550.361 166.34 549.751C164.96 548.981 164.86 547.261 165.53 546.081C157.75 535.511 150.75 524.381 144.57 512.801C150.33 526.021 157.41 538.631 165.65 550.451C168.35 552.611 171.09 554.731 173.86 556.811C172.45 555.081 171.05 553.341 169.68 551.571H169.67Z" fill="#FFAF53"/>
<path d="M125.23 466.86C123.75 462.18 122.39 457.45 121.17 452.69C120.79 451.2 121.65 450.11 122.76 449.68C122.26 444.83 121.94 439.96 121.77 435.08C119.67 435.62 117.92 437.32 118.08 439.99C119.52 463.59 126.12 486.58 136.86 507.42C131.71 494.31 127.8 480.72 125.23 466.86Z" fill="#FFAF53"/>
<path d="M218.94 569.389C219.02 569.439 219.1 569.489 219.19 569.539C219.3 569.589 219.42 569.629 219.53 569.679C219.28 569.409 219.03 569.129 218.78 568.849C218.3 568.549 217.82 568.249 217.34 567.949C217.87 568.429 218.4 568.909 218.94 569.389Z" fill="#FFAF53"/>
<path d="M128.15 420.68C128.37 420.05 128.6 419.43 128.86 418.82C125.61 416.16 119.26 419.03 120.66 424.24C120.97 425.41 121.31 426.57 121.63 427.73C121.63 427.51 121.63 427.29 121.63 427.07C121.63 425.31 122.9 424.49 124.17 424.56C124.09 423.96 124 423.36 123.93 422.75C123.69 420.61 126.71 419.38 128.15 420.67V420.68Z" fill="#FFAF53"/>
<path d="M215.86 566.601C215.65 566.191 215.54 565.721 215.53 565.251C206.92 555.581 198.66 545.601 190.75 535.351C174.06 517.451 160.49 496.551 149.84 474.221C146.99 469.271 144.23 464.271 141.53 459.231C139.54 457.911 137.69 456.401 136 454.721C150.19 498.691 181.51 535.181 215.86 566.611V566.601Z" fill="#FFAF53"/>
<path d="M150.01 497.051C162.3 520.001 178.63 540.741 198.02 558.061C199.03 558.561 200.03 559.071 201.04 559.581C181.6 540.641 163.74 519.961 150.01 497.061V497.051Z" fill="#FFAF53"/>
<path d="M223.67 563.591C221.14 561.881 218.65 560.121 216.22 558.301C217.62 559.901 219.01 561.511 220.43 563.091C221.52 563.231 222.6 563.401 223.67 563.591Z" fill="#FFAF53"/>
<path d="M173.24 547.031C171.87 545.521 170.52 544.001 169.2 542.461C170.24 543.881 171.29 545.291 172.36 546.691C172.66 546.811 172.95 546.921 173.25 547.041L173.24 547.031Z" fill="#FFAF53"/>
<path d="M181.17 557.631C184.57 561.641 188.09 565.541 191.73 569.351C194.05 569.981 196.38 570.591 198.71 571.181C194.35 567.631 190.11 563.931 186.03 560.071C184.41 559.261 182.79 558.451 181.17 557.631Z" fill="#FFAF53"/>
<path d="M129.65 462.96C134.29 476.8 140.27 490.14 147.44 502.79C139.92 489.23 133.77 474.9 129.17 460.07C129.32 461.03 129.49 461.99 129.65 462.96Z" fill="#FFAF53"/>
<path d="M100.08 458.99C100.8 467.35 102.25 475.61 104.35 483.71C108.15 489.41 112.04 495.13 116.08 500.82C111.16 490.15 107.09 479.09 103.91 467.76C102.6 464.86 101.34 461.93 100.09 459L100.08 458.99Z" fill="#FFAF53"/>
<path d="M115.77 481.001C113.93 473.261 112.48 465.431 111.4 457.551C110.75 454.801 110.2 452.011 109.74 449.161C109.22 445.871 106.39 444.241 103.84 444.431C105.07 451.681 106.67 458.851 108.63 465.911C110.92 470.981 113.3 476.011 115.76 481.001H115.77Z" fill="#FFAF53"/>
<path d="M191.09 575.97C189.43 574.93 187.79 573.87 186.16 572.78C184.94 572.44 183.72 572.1 182.52 571.75C182.57 571.8 182.61 571.85 182.66 571.91C185.21 573.73 187.8 575.47 190.43 577.14C191.53 577.75 192.64 578.36 193.76 578.96C193.7 578.78 193.63 578.61 193.54 578.44C192.72 577.63 191.91 576.8 191.1 575.98L191.09 575.97Z" fill="#FFAF53"/>
<path d="M231.1 570.57C235.8 573.52 240.5 576.46 245.21 579.41C245.45 579.49 245.69 579.57 245.94 579.66C246.03 578.86 245.94 578.06 245.59 577.32C241.07 574.48 236.22 572.2 231.11 570.58L231.1 570.57Z" fill="#FFAF53"/>
<path d="M180.82 577.541C177.71 575.741 174.62 573.921 171.56 572.051C171.59 573.381 170.54 574.701 169.24 574.811C169.69 575.261 170.14 575.701 170.6 576.141C175.7 579.451 181.01 582.471 186.52 585.121C187.33 585.511 188.12 585.691 188.87 585.701C186.12 583.051 183.43 580.331 180.83 577.541H180.82Z" fill="#FFAF53"/>
<path d="M100.99 492.221C100.88 493.191 101.07 494.261 101.68 495.371C102.45 496.781 103.24 498.181 104.04 499.571C102.97 497.141 101.95 494.691 100.99 492.221Z" fill="#FFAF53"/>
<path d="M117.43 514.67C123.74 525.45 131.27 535.53 139.83 544.65C140.18 544.91 140.53 545.16 140.88 545.42C140.77 545.23 140.66 545.05 140.56 544.87C132.44 535.13 124.74 525.04 117.42 514.68L117.43 514.67Z" fill="#FFAF53"/>
<path d="M137.62 509.319C131.86 502.169 126.73 494.599 122.43 486.539C124 492.349 125.76 498.109 127.76 503.789C133.15 513.399 138.87 522.829 144.9 532.069C147.3 534.449 149.76 536.789 152.28 539.079C146.67 529.529 141.77 519.579 137.63 509.319H137.62Z" fill="#FFAF53"/>
<path d="M145.05 532.311C149.2 538.671 153.5 544.931 157.95 551.091C159.76 552.851 161.59 554.581 163.44 556.281C159.92 551.381 156.6 546.331 153.49 541.171C150.64 538.251 147.82 535.301 145.05 532.311Z" fill="#FFAF53"/>
<path d="M166.81 174.4C166.43 173.79 165.94 173.27 165.35 172.89C165.85 170.81 164.83 168.6 163.13 167.4C158.07 177.72 152.48 187.76 146.38 197.49C154 190.53 160.84 182.79 166.81 174.4Z" fill="#638154"/>
<path d="M126.63 188.05C122.04 192.43 116.56 197.73 112.7 203.69C107.6 208.42 102.79 213.44 98.3601 218.82C97.7001 219.62 97.3801 220.65 97.3401 221.7C110.52 209.2 122.13 194.95 134.31 181.4C131.65 183.49 129.09 185.7 126.63 188.05Z" fill="#638154"/>
<path d="M136.99 193.029C127.09 204.289 117.48 215.899 106.99 226.369C108.58 225.919 110.06 225.279 111.49 224.479C112.37 224.799 113.26 224.889 114.17 224.819C121.92 215.369 129.12 205.529 135.72 195.299L136.99 193.039V193.029Z" fill="#638154"/>
<path d="M75.1399 172.43C75.1899 172.37 75.2399 172.32 75.2899 172.26C72.0799 174.33 68.9799 176.6 66.0199 179.09C65.0299 179.92 64.0099 180.27 63.0299 180.27C60.7599 183.63 58.7099 187.14 56.8999 190.79C62.8599 184.56 68.9399 178.43 75.1399 172.44V172.43Z" fill="#638154"/>
<path d="M60.7201 208.551C67.2701 203.181 72.6401 195.871 77.6701 189.601C83.0601 182.881 88.3201 176.051 93.4601 169.141C89.7801 172.521 86.1301 175.931 82.5301 179.401C74.3801 188.401 67.0501 198.131 60.6001 208.451C60.6401 208.481 60.6801 208.511 60.7201 208.551Z" fill="#638154"/>
<path d="M172.99 74.6792C184.44 73.1592 195.67 70.3392 206.77 67.2092C207.2 67.0892 207.57 66.9092 207.9 66.6992C187.08 68.8092 166.26 70.9192 145.44 73.0292C148.29 75.3492 152.1 75.8292 155.75 75.8392C161.52 75.8592 167.28 75.4292 172.99 74.6792Z" fill="#638154"/>
</g>
<defs>
<clipPath id="clip0_307_121">
<rect width="598.04" height="679.4" fill="white"/>
</clipPath>
</defs>
</svg>
