<svg width="310" height="457" viewBox="0 0 310 457" fill="none" xmlns="http://www.w3.org/2000/svg">
<g clip-path="url(#clip0_307_43)">
<path d="M120.04 147.721C119.42 147.841 118.85 147.951 118.57 148.001C118.33 148.731 118.02 149.451 117.67 150.161C117.83 150.281 117.99 150.391 118.15 150.511C118.72 149.511 119.35 148.341 120.03 147.711L120.04 147.721Z" fill="#D53823"/>
<path d="M307.35 234.921C300.7 200.511 280.24 173.391 251.66 153.841C238.04 144.521 223.36 136.911 208.63 129.531C208.06 129.531 207.49 129.531 206.92 129.511C206.43 129.491 205.95 129.451 205.46 129.421C194.52 130.801 183.36 129.571 172.75 124.741C170.06 123.521 167.74 122.101 165.74 120.531C165.58 120.471 165.42 120.391 165.26 120.291C165.24 120.281 165.22 120.261 165.19 120.241C165.04 120.141 164.89 120.011 164.74 119.861C164.51 119.611 164.3 119.361 164.08 119.111C163.52 118.601 163.01 118.071 162.51 117.531C161.26 116.171 160.19 114.731 159.28 113.221C157.67 116.621 155.47 119.511 152.11 120.571C151.91 120.631 151.71 120.721 151.5 120.771C144.75 122.361 136.23 119.331 130.3 116.301C129.07 115.671 127.9 114.971 126.76 114.231C76.8601 123.511 32.3301 156.111 11.9701 204.171C-0.909936 234.581 -3.76994 268.821 5.17006 300.711C14.3001 333.281 34.2101 361.491 56.1701 386.701C67.4901 399.711 79.4801 412.141 91.5801 424.431C103.12 436.141 115.6 447.831 131.23 453.731C147.95 460.031 165.33 456.471 181.02 449.001C196.79 441.501 211.44 431.171 224.91 420.131C277.94 376.661 321.01 305.691 307.34 234.921H307.35ZM46.3201 179.481C49.5901 178.571 52.5401 181.641 52.4501 184.731C52.4201 185.801 52.2901 186.861 52.0801 187.901C56.5301 184.721 61.1601 181.801 65.9401 179.191C64.8901 178.501 63.9901 177.561 63.3901 176.341C59.3501 168.251 69.5601 160.671 76.1801 158.831C76.9801 158.611 77.7601 158.631 78.4801 158.831C92.1801 154.371 105.87 149.901 119.57 145.441C121.69 144.751 123.81 144.081 125.93 143.401C127.81 143.311 129.7 143.281 131.59 143.311C132.12 146.121 130.9 149.371 129.16 152.431C127.39 152.451 125.63 152.481 123.86 152.571C123.47 152.541 123.08 152.551 122.67 152.621C108.57 153.391 94.6501 156.291 81.4201 161.081C82.0001 161.981 82.3401 163.041 82.3101 164.111C82.2301 167.061 81.4301 169.961 80.0501 172.541C84.0301 170.931 88.0901 169.491 92.2101 168.261C86.9501 171.321 81.7701 174.511 76.6701 177.831C75.7801 178.761 74.7001 179.491 73.4101 179.971C63.4201 186.611 53.7601 193.731 44.4601 201.301C44.3001 201.021 44.1601 200.741 44.0201 200.451C43.6801 200.601 43.3201 200.731 42.9401 200.841C39.2901 201.881 35.2801 200.511 33.5301 197.021C29.4901 188.931 39.7001 181.351 46.3201 179.511V179.481ZM34.4801 228.751C30.4401 220.661 40.6501 213.081 47.2701 211.241C50.5401 210.331 53.4901 213.401 53.4001 216.491C53.3801 217.301 53.2901 218.101 53.1701 218.891C49.6001 223.211 46.2301 227.821 43.3101 232.681C39.8201 233.431 36.1301 232.061 34.4701 228.751H34.4801ZM119.08 384.441C118.55 384.311 118.01 384.181 117.48 384.061C117.96 384.171 118.45 384.261 118.94 384.371C118.99 384.401 119.04 384.421 119.08 384.451V384.441ZM114.92 383.461C110.66 382.481 106.38 381.551 102.1 380.651C102.71 380.531 103.32 380.441 103.93 380.391C107.56 381.531 111.22 382.571 114.92 383.461ZM92.4901 378.701C90.0901 378.231 87.6901 377.781 85.2901 377.331C87.7201 377.071 90.1601 377.741 92.4901 378.701ZM101.39 399.341C97.8501 396.621 94.3801 393.831 91.0501 390.871C103.69 393.011 116.18 395.941 128.45 399.601C121.51 397.941 114.57 396.281 107.63 394.631C103.84 393.721 101.49 396.461 101.4 399.341H101.39ZM138.89 426.491C129.96 420.081 121.03 413.671 112.11 407.251C121.73 411.061 131.23 415.161 140.58 419.611C141.7 420.141 142.81 420.701 143.92 421.241C142.21 422.951 140.54 424.711 138.9 426.491H138.89ZM176.97 424.431C176.87 430.801 168.3 435.081 162.86 435.731C160.31 436.041 158.36 433.861 158.11 431.531C157.81 431.481 157.5 431.431 157.2 431.381C157.3 431.251 157.41 431.121 157.51 430.991C157.72 430.731 157.94 430.471 158.15 430.211C158.74 427.021 160.25 424.031 162.46 421.681C163.93 419.441 165.93 417.651 168.78 417.291C172 416.891 175.2 418.491 176.41 421.531C177.33 421.751 178.24 421.971 179.16 422.191C178.43 422.941 177.7 423.691 176.97 424.441V424.431ZM172.5 398.451C172.64 398.721 172.77 399.011 172.87 399.311C174.85 405.481 166.79 409.731 161.9 410.321C159.49 410.611 157.73 408.111 158.13 405.931C158.6 403.371 159.81 400.971 161.58 399.091C162.76 397.301 164.35 395.871 166.63 395.581C167.6 395.461 168.57 395.581 169.46 395.881C173.06 395.231 176.66 394.721 180.05 394.201C177.49 395.521 174.98 396.951 172.51 398.451H172.5ZM234.25 186.781C235 183.061 238.05 180.121 241.95 180.171C250.99 180.281 253.05 192.831 251.66 199.561C250.97 202.881 246.89 204.101 244.18 202.601C241 200.851 238.36 198.181 236.66 195.011C234.82 192.661 233.62 189.921 234.25 186.781ZM189.96 403.821C187.25 404.141 185.28 401.341 185.72 398.881C186.25 396.001 187.61 393.311 189.6 391.191C190.92 389.181 192.71 387.571 195.27 387.251C198.3 386.871 201.33 388.451 202.29 391.451C204.52 398.391 195.45 403.171 189.96 403.821ZM198.25 407.251C198.07 407.491 197.89 407.731 197.71 407.961C197.53 407.871 197.35 407.791 197.16 407.711C197.44 407.571 197.71 407.421 197.99 407.281C198.08 407.271 198.17 407.261 198.25 407.251ZM191.03 428.821C188.37 429.141 186.43 426.381 186.87 423.971C187.39 421.141 188.73 418.491 190.68 416.411C191.98 414.441 193.74 412.851 196.26 412.541C199.24 412.171 202.21 413.721 203.16 416.661C205.35 423.481 196.44 428.171 191.04 428.821H191.03ZM211.92 378.351C212.59 378.121 213.25 378.001 213.89 378.001L211.92 378.351ZM279.39 240.261C278.7 243.581 274.62 244.801 271.91 243.301C271.31 242.971 270.73 242.591 270.17 242.201C267.68 237.471 264.9 232.891 261.85 228.481C261.88 228.151 261.91 227.811 261.98 227.471C262.73 223.751 265.78 220.811 269.69 220.861C278.73 220.971 280.79 233.521 279.4 240.251L279.39 240.261ZM279.39 204.491C278.7 207.811 274.62 209.031 271.91 207.531C268.73 205.781 266.09 203.111 264.39 199.941C262.55 197.591 261.35 194.851 261.98 191.711C262.73 187.991 265.78 185.051 269.69 185.101C278.73 185.211 280.79 197.761 279.4 204.491H279.39Z" fill="#D53823"/>
<path d="M151.51 120.77C151.72 120.72 151.91 120.64 152.12 120.57C154.69 113.73 155.26 105.74 154.86 98.7296C154.51 92.4996 153.93 86.2596 153.24 80.0296C151.65 71.7996 149.59 63.6796 146.98 55.7296C145.47 52.4496 143.44 49.4696 140.79 46.8396C136.79 42.8696 131.63 40.7196 127.13 37.4096C120.45 32.5096 116.68 16.0396 106.3 23.7996C102.58 26.5796 100.45 30.8496 99.28 35.5396C96.1 53.7296 102.18 72.0496 108.58 88.9596C110.04 94.4996 112.56 99.6896 115.98 104.23C117.68 106.65 119.68 108.86 122.05 110.72C123.53 112 125.11 113.17 126.77 114.25C127.91 114.99 129.08 115.69 130.31 116.32C136.24 119.35 144.77 122.39 151.51 120.79V120.77ZM118.84 79.2696C116.56 74.2996 114.95 69.0196 114.04 63.6196C113.8 62.1996 114.1 60.9596 114.72 59.9596C116.34 65.3696 117.98 70.7696 119.65 76.1696C119.35 77.2396 119.09 78.2796 118.84 79.2696ZM132.16 75.5996L132.63 83.5196C131.9 81.1996 131.17 78.8696 130.44 76.5496C130.78 75.3896 131.11 74.2296 131.45 73.0796C131.57 72.6796 131.74 72.2096 131.93 71.7396C132.01 73.0296 132.08 74.3196 132.16 75.6096V75.5996ZM125.91 61.7796C125.05 58.9296 124.21 56.0696 123.35 53.2096C123.67 53.2396 123.99 53.2796 124.33 53.3396C127.1 53.8196 129.49 55.8196 131.5 58.4196C129.33 58.5596 127.48 59.8296 125.9 61.7796H125.91Z" fill="#5D7951"/>
<path d="M185.05 105.681C178.23 108.361 165.22 109.711 162.52 117.541C163.02 118.081 163.53 118.611 164.09 119.121C164.31 119.371 164.52 119.621 164.75 119.871C164.89 120.031 165.05 120.151 165.2 120.251C165.22 120.271 165.24 120.281 165.27 120.301C165.43 120.401 165.59 120.481 165.75 120.541C167.75 122.121 170.07 123.531 172.76 124.751C183.37 129.571 194.53 130.801 205.47 129.431C205.96 129.461 206.44 129.501 206.93 129.521C207.5 129.541 208.07 129.551 208.64 129.541C217.23 129.501 225.46 127.121 233.32 123.691C247.71 117.421 264.91 109.181 274.64 96.3806C278.19 91.7106 282.21 84.5006 280.31 78.4006C278.08 71.2406 270.69 72.6706 264.94 73.6906C247.69 76.7506 230.31 80.1206 213.99 86.6506C211.14 89.5206 208.09 92.2006 204.82 94.6606C198.76 99.2206 192.12 102.911 185.06 105.681H185.05Z" fill="#5D7951"/>
<path d="M160 108.08C159.91 109.57 159.74 111.07 159.51 112.57C161.73 109.48 165.15 107.15 168.84 105.65C177.09 102.29 185.51 100.58 193.36 96.1103C197.06 94.0103 200.57 91.6103 203.87 88.9503C207.35 85.3503 210.53 81.5003 212.73 76.9503C215.72 70.7703 216.82 63.9303 216.58 57.1303C216.5 54.8703 216.27 52.6203 215.91 50.3903C214.84 43.7503 212.56 37.4103 209.72 31.3303C208.09 27.8403 206.27 24.4203 204.39 21.0803C200.77 14.6603 196.84 4.4703 188.33 10.8203C173.86 21.6103 167.12 40.9603 162.56 57.6403C160.94 63.5503 159.09 69.9903 157.7 76.5703L158.06 79.7903C159.1 89.1403 160.61 98.6603 160.02 108.09L160 108.08ZM191.34 40.5203C192.95 41.3703 194.44 42.4103 195.71 43.7403C200 48.2303 198.65 53.7003 196.33 58.8503C194.63 62.6403 192.59 66.2403 190.27 69.6503C190.78 64.8303 191.18 60.0003 191.45 55.1603C191.72 50.2003 192.01 45.2403 191.34 40.5203ZM173.4 67.7003C173.92 64.9303 174.63 62.1903 175.5 59.4903C176.15 67.7503 176.8 76.0003 177.45 84.2603C177.31 84.3803 177.18 84.5103 177.05 84.6303C170.53 83.7903 172.54 72.2703 173.39 67.7003H173.4Z" fill="#5D7951"/>
<path d="M216.58 57.1298C221.1 48.5998 225.96 40.2598 231.17 32.1198C233.83 27.9598 236.58 23.8598 239.41 19.8098C240.28 18.5598 241.25 17.3198 242.21 16.0598C239.52 12.0198 237.05 7.83977 234.73 3.55977C233.93 2.37977 233.14 1.18977 232.34 0.00976562C228.43 2.79977 225.3 7.41977 222.72 10.7698C217.75 17.2098 213.4 24.0898 209.72 31.3398C212.56 37.4198 214.84 43.7598 215.91 50.3998C216.27 52.6298 216.5 54.8798 216.58 57.1398V57.1298Z" fill="#36562C"/>
<path d="M152.12 120.571C155.48 119.511 157.68 116.621 159.29 113.221C160.2 114.741 161.28 116.181 162.52 117.531C165.22 109.701 178.23 108.351 185.05 105.671C192.11 102.901 198.75 99.2106 204.81 94.6506C208.08 92.1906 211.13 89.5105 213.98 86.6405C213.53 86.8205 213.08 86.9906 212.63 87.1805C207.86 89.1505 203.23 91.3905 198.78 93.9605C200.5 92.3205 202.22 90.6605 203.87 88.9505C200.57 91.6105 197.06 94.0105 193.36 96.1105C185.51 100.581 177.09 102.301 168.84 105.651C165.15 107.151 161.73 109.481 159.51 112.571C159.74 111.081 159.91 109.581 160 108.081C160.6 98.6506 159.09 89.1305 158.04 79.7805L157.68 76.5605C157.3 78.3405 156.96 80.1206 156.66 81.9106C155.94 85.1906 155.42 88.4705 155.17 91.6805C154.63 87.7705 153.98 83.8806 153.23 80.0106C153.92 86.2406 154.5 92.4805 154.85 98.7105C155.25 105.731 154.68 113.711 152.11 120.551L152.12 120.571Z" fill="#486739"/>
<path d="M176.59 421.959C176.86 422.819 176.98 423.639 176.97 424.439C177.7 423.689 178.43 422.939 179.16 422.189C178.24 421.969 177.33 421.749 176.41 421.529C176.47 421.679 176.55 421.809 176.59 421.959Z" fill="#DD604F"/>
<path d="M197.71 407.98C197.89 407.74 198.07 407.5 198.25 407.27C198.16 407.28 198.07 407.29 197.99 407.3C197.71 407.44 197.44 407.59 197.16 407.73C197.35 407.81 197.53 407.89 197.71 407.98Z" fill="#DD604F"/>
<path d="M85.29 377.34C87.69 377.78 90.09 378.24 92.49 378.71C90.16 377.75 87.72 377.08 85.29 377.34Z" fill="#DD604F"/>
<path d="M213.89 378.02C213.25 378.02 212.59 378.14 211.92 378.37L213.89 378.02Z" fill="#DD604F"/>
<path d="M114.92 383.47C111.22 382.58 107.56 381.53 103.93 380.4C103.31 380.45 102.7 380.54 102.1 380.66C106.38 381.56 110.66 382.49 114.92 383.47Z" fill="#DD604F"/>
<path d="M119.08 384.441C119.08 384.441 118.98 384.391 118.94 384.361C118.45 384.261 117.97 384.161 117.48 384.051C118.01 384.171 118.55 384.311 119.08 384.431V384.441Z" fill="#DD604F"/>
<path d="M91.05 390.881C94.38 393.831 97.85 396.631 101.39 399.351C101.48 396.471 103.83 393.731 107.62 394.641C114.56 396.301 121.5 397.961 128.44 399.611C116.17 395.951 103.68 393.021 91.04 390.881H91.05Z" fill="#DD604F"/>
<path d="M112.11 407.26C121.03 413.68 129.96 420.09 138.89 426.5C140.53 424.72 142.2 422.96 143.91 421.25C142.8 420.71 141.69 420.15 140.57 419.62C131.22 415.17 121.72 411.07 112.1 407.26H112.11Z" fill="#DD604F"/>
<path d="M158.14 430.251C158.14 430.251 158.14 430.231 158.14 430.221C157.93 430.481 157.71 430.741 157.5 431.001C157.4 431.131 157.29 431.261 157.19 431.391C157.49 431.441 157.8 431.491 158.1 431.541C158.05 431.111 158.06 430.671 158.14 430.251Z" fill="#DD604F"/>
<path d="M172.5 398.461C174.97 396.961 177.48 395.531 180.04 394.211C176.65 394.721 173.05 395.231 169.45 395.891C170.74 396.341 171.84 397.221 172.5 398.461Z" fill="#DD604F"/>
<path d="M81.42 161.051C94.65 156.261 108.57 153.361 122.67 152.591C123.08 152.531 123.48 152.511 123.86 152.541C125.62 152.461 127.39 152.421 129.16 152.401C130.9 149.341 132.12 146.091 131.59 143.281C129.7 143.251 127.81 143.281 125.93 143.371C123.81 144.051 121.68 144.721 119.57 145.411C105.87 149.871 92.18 154.341 78.48 158.801C79.69 159.131 80.73 159.961 81.42 161.031V161.051ZM118.57 148.001C118.85 147.941 119.42 147.841 120.04 147.721C119.36 148.351 118.72 149.511 118.16 150.521C118 150.401 117.84 150.281 117.68 150.171C118.03 149.451 118.33 148.731 118.58 148.011L118.57 148.001Z" fill="#DD604F"/>
<path d="M44.02 200.429C44.16 200.719 44.3 201.009 44.46 201.279C53.76 193.709 63.42 186.579 73.41 179.949C73.21 180.019 73.01 180.109 72.8 180.169C70.43 180.849 67.91 180.489 65.95 179.199C61.16 181.809 56.53 184.729 52.09 187.909C51.59 190.409 50.6 192.809 49.16 194.909C48.07 197.289 46.48 199.359 44.03 200.429H44.02Z" fill="#DD604F"/>
<path d="M76.6699 177.81C81.7699 174.5 86.9499 171.3 92.2099 168.24C88.0899 169.47 84.0399 170.91 80.0499 172.52C79.7299 173.11 79.3899 173.7 79.0099 174.25C78.4099 175.57 77.6399 176.79 76.6699 177.8V177.81Z" fill="#DD604F"/>
<path d="M269.69 185.11C265.79 185.06 262.73 188 261.98 191.72C261.35 194.86 262.54 197.6 264.39 199.95C266.1 203.12 268.73 205.79 271.91 207.54C274.62 209.03 278.7 207.82 279.39 204.5C280.78 197.77 278.73 185.22 269.68 185.11H269.69Z" fill="#FFC534"/>
<path d="M269.69 220.88C265.79 220.83 262.73 223.77 261.98 227.49C261.91 227.83 261.87 228.17 261.85 228.5C264.9 232.9 267.69 237.49 270.17 242.22C270.73 242.61 271.31 242.99 271.91 243.32C274.62 244.81 278.7 243.6 279.39 240.28C280.78 233.55 278.73 221 269.68 220.89L269.69 220.88Z" fill="#FFC534"/>
<path d="M244.18 202.62C246.89 204.11 250.97 202.9 251.66 199.58C253.05 192.85 251 180.3 241.95 180.19C238.05 180.14 234.99 183.08 234.25 186.8C233.62 189.94 234.81 192.68 236.66 195.03C238.37 198.2 241 200.87 244.18 202.62Z" fill="#FFC534"/>
<path d="M72.8001 180.16C73.0101 180.1 73.2101 180.02 73.4101 179.94C74.7101 179.46 75.7901 178.73 76.6701 177.8C77.6401 176.79 78.4101 175.56 79.0101 174.25C79.3901 173.69 79.7301 173.11 80.0501 172.52C81.4401 169.94 82.2301 167.04 82.3101 164.09C82.3401 163.02 82.0001 161.96 81.4201 161.06C80.7301 159.99 79.6901 159.15 78.4801 158.83C77.7601 158.64 76.9801 158.62 76.1801 158.83C69.5601 160.68 59.3501 168.25 63.3901 176.34C64.0001 177.56 64.9001 178.5 65.9401 179.19C67.9001 180.48 70.4201 180.84 72.7901 180.16H72.8001Z" fill="#FFC534"/>
<path d="M196.26 412.551C193.74 412.871 191.98 414.451 190.68 416.421C188.73 418.501 187.39 421.151 186.87 423.981C186.43 426.391 188.37 429.151 191.03 428.831C196.43 428.181 205.34 423.491 203.15 416.671C202.21 413.731 199.23 412.171 196.25 412.551H196.26Z" fill="#FFC534"/>
<path d="M169.45 395.89C168.56 395.58 167.6 395.47 166.62 395.59C164.34 395.88 162.75 397.31 161.57 399.1C159.8 400.98 158.59 403.38 158.12 405.94C157.72 408.12 159.48 410.62 161.89 410.33C166.78 409.74 174.84 405.49 172.86 399.32C172.76 399.01 172.63 398.73 172.49 398.46C171.83 397.22 170.73 396.34 169.44 395.89H169.45Z" fill="#FFC534"/>
<path d="M176.41 421.539C175.19 418.499 172 416.889 168.78 417.299C165.93 417.659 163.93 419.449 162.46 421.689C160.25 424.039 158.74 427.029 158.15 430.219C158.15 430.229 158.15 430.239 158.15 430.249C158.07 430.679 158.07 431.109 158.11 431.539C158.36 433.869 160.32 436.049 162.86 435.739C168.3 435.089 176.87 430.809 176.97 424.439C176.98 423.649 176.87 422.819 176.59 421.959C176.54 421.809 176.46 421.679 176.41 421.529V421.539Z" fill="#FFC534"/>
<path d="M202.29 391.47C201.33 388.48 198.3 386.89 195.27 387.27C192.71 387.59 190.92 389.21 189.6 391.21C187.61 393.33 186.25 396.02 185.72 398.9C185.27 401.35 187.25 404.16 189.96 403.84C195.46 403.18 204.52 398.41 202.29 391.47Z" fill="#FFC534"/>
<path d="M42.9299 200.81C43.3099 200.7 43.6699 200.57 44.0099 200.42C46.4599 199.35 48.0499 197.28 49.1399 194.9C50.5799 192.8 51.5699 190.4 52.0699 187.9C52.2799 186.86 52.4099 185.8 52.4399 184.73C52.5199 181.64 49.5699 178.56 46.3099 179.48C39.6899 181.33 29.4799 188.9 33.5199 196.99C35.2599 200.48 39.2799 201.85 42.9299 200.81Z" fill="#FFC534"/>
<path d="M53.3999 216.49C53.4799 213.4 50.5299 210.32 47.2699 211.24C40.6499 213.09 30.4399 220.66 34.4799 228.75C36.1299 232.06 39.8299 233.44 43.3199 232.68C46.2399 227.82 49.6099 223.21 53.1799 218.89C53.2999 218.1 53.3899 217.29 53.4099 216.49H53.3999Z" fill="#FFC534"/>
<path d="M124.34 53.3409C124 53.2809 123.67 53.2409 123.36 53.2109C124.21 56.0709 125.05 58.9309 125.92 61.7809C127.5 59.8309 129.35 58.5509 131.52 58.4209C129.51 55.8209 127.12 53.8209 124.35 53.3409H124.34Z" fill="#638154"/>
<path d="M114.04 63.6209C114.95 69.0109 116.56 74.2909 118.84 79.2709C119.09 78.2809 119.36 77.2409 119.65 76.1709C117.98 70.7709 116.34 65.3709 114.72 59.9609C114.1 60.9609 113.8 62.2009 114.04 63.6209Z" fill="#638154"/>
<path d="M130.45 76.5505C131.17 78.8705 131.9 81.2005 132.64 83.5205L132.17 75.6005C132.09 74.3105 132.02 73.0205 131.94 71.7305C131.76 72.2105 131.58 72.6705 131.46 73.0705C131.12 74.2305 130.79 75.3905 130.45 76.5405V76.5505Z" fill="#638154"/>
<path d="M177.06 84.64C177.19 84.51 177.33 84.39 177.46 84.27C176.81 76.01 176.16 67.76 175.51 59.5C174.64 62.2 173.92 64.94 173.41 67.71C172.56 72.28 170.54 83.8 177.07 84.64H177.06Z" fill="#638154"/>
<path d="M190.28 69.6495C192.6 66.2395 194.64 62.6395 196.34 58.8495C198.65 53.6995 200 48.2295 195.72 43.7395C194.45 42.4095 192.96 41.3695 191.35 40.5195C192.02 45.2395 191.73 50.1995 191.46 55.1595C191.2 59.9995 190.79 64.8295 190.28 69.6495Z" fill="#638154"/>
</g>
<defs>
<clipPath id="clip0_307_43">
<rect width="309.91" height="456.97" fill="white"/>
</clipPath>
</defs>
</svg>
